%TF.GenerationSoftware,KiCad,Pcbnew,9.0.3-9.0.3-0~ubuntu24.04.1*%
%TF.CreationDate,2026-01-26T20:29:58+01:00*%
%TF.ProjectId,IRsensormodule,49527365-6e73-46f7-926d-6f64756c652e,rev?*%
%TF.SameCoordinates,Original*%
%TF.FileFunction,Legend,Top*%
%TF.FilePolarity,Positive*%
%FSLAX46Y46*%
G04 Gerber Fmt 4.6, Leading zero omitted, Abs format (unit mm)*
G04 Created by KiCad (PCBNEW 9.0.3-9.0.3-0~ubuntu24.04.1) date 2026-01-26 20:29:58*
%MOMM*%
%LPD*%
G01*
G04 APERTURE LIST*
%ADD10C,0.300000*%
%ADD11C,0.250000*%
%ADD12C,0.100000*%
%ADD13C,0.150000*%
%ADD14C,0.120000*%
G04 APERTURE END LIST*
D10*
G36*
X163112348Y-60982445D02*
G01*
X163094793Y-60869086D01*
X163089877Y-60780823D01*
X163093768Y-60714493D01*
X163105374Y-60655145D01*
X163122782Y-60606810D01*
X163146557Y-60564584D01*
X163174900Y-60530285D01*
X163208828Y-60501643D01*
X163292860Y-60461743D01*
X163403623Y-60445108D01*
X163420338Y-60444867D01*
X163462348Y-60444867D01*
X163308353Y-61060847D01*
X163196367Y-61164528D01*
X163239832Y-61200132D01*
X163262675Y-61243240D01*
X163263534Y-61245617D01*
X163199176Y-61475205D01*
X163118652Y-61750024D01*
X163059103Y-61884068D01*
X163026764Y-61938352D01*
X162989368Y-61985517D01*
X162948988Y-62023835D01*
X162904254Y-62055339D01*
X162856323Y-62079458D01*
X162804467Y-62096757D01*
X162692372Y-62110359D01*
X162614167Y-62105249D01*
X162516800Y-62085115D01*
X162504794Y-62082027D01*
X162392686Y-62269972D01*
X162515907Y-62283893D01*
X162592388Y-62279632D01*
X162665609Y-62265435D01*
X162790951Y-62214364D01*
X162948495Y-62112812D01*
X163073147Y-62016692D01*
X163165743Y-61940364D01*
X163235063Y-61875420D01*
X163286706Y-61812586D01*
X163326274Y-61742589D01*
X163377305Y-61596582D01*
X163414720Y-61452857D01*
X163672274Y-60419710D01*
X163764720Y-60338499D01*
X163543764Y-60343648D01*
X163385282Y-60364058D01*
X163372711Y-60366465D01*
X163294850Y-60385995D01*
X163222647Y-60412088D01*
X163157329Y-60443887D01*
X163098061Y-60481413D01*
X163045948Y-60523590D01*
X163000217Y-60570693D01*
X162961664Y-60621616D01*
X162929813Y-60676735D01*
X162905116Y-60735187D01*
X162887487Y-60797189D01*
X162874333Y-60920896D01*
X162879168Y-60991754D01*
X162897383Y-61072617D01*
X162899490Y-61080509D01*
X163112348Y-60982445D01*
G37*
G36*
X163632707Y-61656800D02*
G01*
X163509609Y-61948670D01*
X163552553Y-61999828D01*
X163599529Y-62042898D01*
X163647341Y-62075907D01*
X163699350Y-62102118D01*
X163816468Y-62134481D01*
X163921158Y-62141988D01*
X164077358Y-62126973D01*
X164236388Y-62081303D01*
X164390514Y-62005483D01*
X164462649Y-61957179D01*
X164529174Y-61903307D01*
X164588859Y-61844982D01*
X164641419Y-61782476D01*
X164684515Y-61719008D01*
X164719575Y-61652850D01*
X164744587Y-61588671D01*
X164761269Y-61523106D01*
X164769535Y-61435027D01*
X164764939Y-61378598D01*
X164748399Y-61327364D01*
X164693834Y-61250607D01*
X164571487Y-61140891D01*
X164517477Y-61098339D01*
X164383826Y-60987058D01*
X164311550Y-60903918D01*
X164293690Y-60867580D01*
X164283748Y-60829699D01*
X164279584Y-60769954D01*
X164294408Y-60666059D01*
X164337810Y-60571330D01*
X164369133Y-60530310D01*
X164405731Y-60495220D01*
X164446103Y-60467325D01*
X164490187Y-60446705D01*
X164534993Y-60434538D01*
X164581957Y-60430334D01*
X164633011Y-60434567D01*
X164673976Y-60448560D01*
X164698690Y-60466301D01*
X164719415Y-60491212D01*
X164752660Y-60569795D01*
X164772344Y-60660411D01*
X164957114Y-60528520D01*
X164946991Y-60472433D01*
X164929887Y-60424039D01*
X164908445Y-60386968D01*
X164881358Y-60356302D01*
X164813984Y-60315708D01*
X164723480Y-60298981D01*
X164707986Y-60298688D01*
X164595865Y-60313575D01*
X164474298Y-60360372D01*
X164350415Y-60440671D01*
X164237607Y-60550180D01*
X164190824Y-60611679D01*
X164151787Y-60676368D01*
X164123120Y-60739202D01*
X164103231Y-60803015D01*
X164091884Y-60896228D01*
X164095980Y-60952623D01*
X164109021Y-61004936D01*
X164156591Y-61091832D01*
X164247221Y-61186967D01*
X164313168Y-61241465D01*
X164417997Y-61330493D01*
X164488958Y-61406073D01*
X164519193Y-61451158D01*
X164539146Y-61496015D01*
X164553852Y-61586320D01*
X164553991Y-61597815D01*
X164539049Y-61699670D01*
X164494268Y-61797507D01*
X164420457Y-61885465D01*
X164373566Y-61923272D01*
X164321589Y-61955149D01*
X164265472Y-61980344D01*
X164205787Y-61998305D01*
X164100310Y-62010341D01*
X163988051Y-61995390D01*
X163878308Y-61950377D01*
X163830137Y-61918211D01*
X163788041Y-61880348D01*
X163781085Y-61872833D01*
X163744974Y-61826993D01*
X163718207Y-61777418D01*
X163684202Y-61660600D01*
X163677526Y-61625903D01*
X163632707Y-61656800D01*
G37*
D11*
X117521139Y-58437952D02*
X117521139Y-59104619D01*
X117092568Y-58437952D02*
X117092568Y-58961761D01*
X117092568Y-58961761D02*
X117140187Y-59057000D01*
X117140187Y-59057000D02*
X117235425Y-59104619D01*
X117235425Y-59104619D02*
X117378282Y-59104619D01*
X117378282Y-59104619D02*
X117473520Y-59057000D01*
X117473520Y-59057000D02*
X117521139Y-59009380D01*
X117997330Y-58437952D02*
X117997330Y-59437952D01*
X117997330Y-58485571D02*
X118092568Y-58437952D01*
X118092568Y-58437952D02*
X118283044Y-58437952D01*
X118283044Y-58437952D02*
X118378282Y-58485571D01*
X118378282Y-58485571D02*
X118425901Y-58533190D01*
X118425901Y-58533190D02*
X118473520Y-58628428D01*
X118473520Y-58628428D02*
X118473520Y-58914142D01*
X118473520Y-58914142D02*
X118425901Y-59009380D01*
X118425901Y-59009380D02*
X118378282Y-59057000D01*
X118378282Y-59057000D02*
X118283044Y-59104619D01*
X118283044Y-59104619D02*
X118092568Y-59104619D01*
X118092568Y-59104619D02*
X117997330Y-59057000D01*
X119330663Y-59104619D02*
X119330663Y-58104619D01*
X119330663Y-59057000D02*
X119235425Y-59104619D01*
X119235425Y-59104619D02*
X119044949Y-59104619D01*
X119044949Y-59104619D02*
X118949711Y-59057000D01*
X118949711Y-59057000D02*
X118902092Y-59009380D01*
X118902092Y-59009380D02*
X118854473Y-58914142D01*
X118854473Y-58914142D02*
X118854473Y-58628428D01*
X118854473Y-58628428D02*
X118902092Y-58533190D01*
X118902092Y-58533190D02*
X118949711Y-58485571D01*
X118949711Y-58485571D02*
X119044949Y-58437952D01*
X119044949Y-58437952D02*
X119235425Y-58437952D01*
X119235425Y-58437952D02*
X119330663Y-58485571D01*
X119806854Y-59104619D02*
X119806854Y-58437952D01*
X119806854Y-58104619D02*
X119759235Y-58152238D01*
X119759235Y-58152238D02*
X119806854Y-58199857D01*
X119806854Y-58199857D02*
X119854473Y-58152238D01*
X119854473Y-58152238D02*
X119806854Y-58104619D01*
X119806854Y-58104619D02*
X119806854Y-58199857D01*
X141561139Y-61534619D02*
X141561139Y-60534619D01*
X141561139Y-61487000D02*
X141465901Y-61534619D01*
X141465901Y-61534619D02*
X141275425Y-61534619D01*
X141275425Y-61534619D02*
X141180187Y-61487000D01*
X141180187Y-61487000D02*
X141132568Y-61439380D01*
X141132568Y-61439380D02*
X141084949Y-61344142D01*
X141084949Y-61344142D02*
X141084949Y-61058428D01*
X141084949Y-61058428D02*
X141132568Y-60963190D01*
X141132568Y-60963190D02*
X141180187Y-60915571D01*
X141180187Y-60915571D02*
X141275425Y-60867952D01*
X141275425Y-60867952D02*
X141465901Y-60867952D01*
X141465901Y-60867952D02*
X141561139Y-60915571D01*
X142465901Y-61534619D02*
X142465901Y-61010809D01*
X142465901Y-61010809D02*
X142418282Y-60915571D01*
X142418282Y-60915571D02*
X142323044Y-60867952D01*
X142323044Y-60867952D02*
X142132568Y-60867952D01*
X142132568Y-60867952D02*
X142037330Y-60915571D01*
X142465901Y-61487000D02*
X142370663Y-61534619D01*
X142370663Y-61534619D02*
X142132568Y-61534619D01*
X142132568Y-61534619D02*
X142037330Y-61487000D01*
X142037330Y-61487000D02*
X141989711Y-61391761D01*
X141989711Y-61391761D02*
X141989711Y-61296523D01*
X141989711Y-61296523D02*
X142037330Y-61201285D01*
X142037330Y-61201285D02*
X142132568Y-61153666D01*
X142132568Y-61153666D02*
X142370663Y-61153666D01*
X142370663Y-61153666D02*
X142465901Y-61106047D01*
X142799235Y-60867952D02*
X143180187Y-60867952D01*
X142942092Y-60534619D02*
X142942092Y-61391761D01*
X142942092Y-61391761D02*
X142989711Y-61487000D01*
X142989711Y-61487000D02*
X143084949Y-61534619D01*
X143084949Y-61534619D02*
X143180187Y-61534619D01*
X143942092Y-61534619D02*
X143942092Y-61010809D01*
X143942092Y-61010809D02*
X143894473Y-60915571D01*
X143894473Y-60915571D02*
X143799235Y-60867952D01*
X143799235Y-60867952D02*
X143608759Y-60867952D01*
X143608759Y-60867952D02*
X143513521Y-60915571D01*
X143942092Y-61487000D02*
X143846854Y-61534619D01*
X143846854Y-61534619D02*
X143608759Y-61534619D01*
X143608759Y-61534619D02*
X143513521Y-61487000D01*
X143513521Y-61487000D02*
X143465902Y-61391761D01*
X143465902Y-61391761D02*
X143465902Y-61296523D01*
X143465902Y-61296523D02*
X143513521Y-61201285D01*
X143513521Y-61201285D02*
X143608759Y-61153666D01*
X143608759Y-61153666D02*
X143846854Y-61153666D01*
X143846854Y-61153666D02*
X143942092Y-61106047D01*
D10*
X156964510Y-62119400D02*
X158107368Y-62119400D01*
X157535939Y-62690828D02*
X157535939Y-61547971D01*
X153124510Y-62109400D02*
X154267368Y-62109400D01*
D12*
X134708646Y-61272419D02*
X135327693Y-61272419D01*
X135327693Y-61272419D02*
X134994360Y-61653371D01*
X134994360Y-61653371D02*
X135137217Y-61653371D01*
X135137217Y-61653371D02*
X135232455Y-61700990D01*
X135232455Y-61700990D02*
X135280074Y-61748609D01*
X135280074Y-61748609D02*
X135327693Y-61843847D01*
X135327693Y-61843847D02*
X135327693Y-62081942D01*
X135327693Y-62081942D02*
X135280074Y-62177180D01*
X135280074Y-62177180D02*
X135232455Y-62224800D01*
X135232455Y-62224800D02*
X135137217Y-62272419D01*
X135137217Y-62272419D02*
X134851503Y-62272419D01*
X134851503Y-62272419D02*
X134756265Y-62224800D01*
X134756265Y-62224800D02*
X134708646Y-62177180D01*
X135613408Y-61272419D02*
X135946741Y-62272419D01*
X135946741Y-62272419D02*
X136280074Y-61272419D01*
X136518170Y-61272419D02*
X137137217Y-61272419D01*
X137137217Y-61272419D02*
X136803884Y-61653371D01*
X136803884Y-61653371D02*
X136946741Y-61653371D01*
X136946741Y-61653371D02*
X137041979Y-61700990D01*
X137041979Y-61700990D02*
X137089598Y-61748609D01*
X137089598Y-61748609D02*
X137137217Y-61843847D01*
X137137217Y-61843847D02*
X137137217Y-62081942D01*
X137137217Y-62081942D02*
X137089598Y-62177180D01*
X137089598Y-62177180D02*
X137041979Y-62224800D01*
X137041979Y-62224800D02*
X136946741Y-62272419D01*
X136946741Y-62272419D02*
X136661027Y-62272419D01*
X136661027Y-62272419D02*
X136565789Y-62224800D01*
X136565789Y-62224800D02*
X136518170Y-62177180D01*
X162108646Y-75772419D02*
X162727693Y-75772419D01*
X162727693Y-75772419D02*
X162394360Y-76153371D01*
X162394360Y-76153371D02*
X162537217Y-76153371D01*
X162537217Y-76153371D02*
X162632455Y-76200990D01*
X162632455Y-76200990D02*
X162680074Y-76248609D01*
X162680074Y-76248609D02*
X162727693Y-76343847D01*
X162727693Y-76343847D02*
X162727693Y-76581942D01*
X162727693Y-76581942D02*
X162680074Y-76677180D01*
X162680074Y-76677180D02*
X162632455Y-76724800D01*
X162632455Y-76724800D02*
X162537217Y-76772419D01*
X162537217Y-76772419D02*
X162251503Y-76772419D01*
X162251503Y-76772419D02*
X162156265Y-76724800D01*
X162156265Y-76724800D02*
X162108646Y-76677180D01*
X163013408Y-75772419D02*
X163346741Y-76772419D01*
X163346741Y-76772419D02*
X163680074Y-75772419D01*
X163918170Y-75772419D02*
X164537217Y-75772419D01*
X164537217Y-75772419D02*
X164203884Y-76153371D01*
X164203884Y-76153371D02*
X164346741Y-76153371D01*
X164346741Y-76153371D02*
X164441979Y-76200990D01*
X164441979Y-76200990D02*
X164489598Y-76248609D01*
X164489598Y-76248609D02*
X164537217Y-76343847D01*
X164537217Y-76343847D02*
X164537217Y-76581942D01*
X164537217Y-76581942D02*
X164489598Y-76677180D01*
X164489598Y-76677180D02*
X164441979Y-76724800D01*
X164441979Y-76724800D02*
X164346741Y-76772419D01*
X164346741Y-76772419D02*
X164061027Y-76772419D01*
X164061027Y-76772419D02*
X163965789Y-76724800D01*
X163965789Y-76724800D02*
X163918170Y-76677180D01*
D10*
X139354510Y-62369400D02*
X140497368Y-62369400D01*
X144754510Y-62219400D02*
X145897368Y-62219400D01*
X145325939Y-62790828D02*
X145325939Y-61647971D01*
D13*
X157251666Y-63354819D02*
X157251666Y-64069104D01*
X157251666Y-64069104D02*
X157204047Y-64211961D01*
X157204047Y-64211961D02*
X157108809Y-64307200D01*
X157108809Y-64307200D02*
X156965952Y-64354819D01*
X156965952Y-64354819D02*
X156870714Y-64354819D01*
X158156428Y-63688152D02*
X158156428Y-64354819D01*
X157918333Y-63307200D02*
X157680238Y-64021485D01*
X157680238Y-64021485D02*
X158299285Y-64021485D01*
X132190476Y-58384819D02*
X132190476Y-59099104D01*
X132190476Y-59099104D02*
X132142857Y-59241961D01*
X132142857Y-59241961D02*
X132047619Y-59337200D01*
X132047619Y-59337200D02*
X131904762Y-59384819D01*
X131904762Y-59384819D02*
X131809524Y-59384819D01*
X133190476Y-59384819D02*
X132619048Y-59384819D01*
X132904762Y-59384819D02*
X132904762Y-58384819D01*
X132904762Y-58384819D02*
X132809524Y-58527676D01*
X132809524Y-58527676D02*
X132714286Y-58622914D01*
X132714286Y-58622914D02*
X132619048Y-58670533D01*
X133571429Y-58480057D02*
X133619048Y-58432438D01*
X133619048Y-58432438D02*
X133714286Y-58384819D01*
X133714286Y-58384819D02*
X133952381Y-58384819D01*
X133952381Y-58384819D02*
X134047619Y-58432438D01*
X134047619Y-58432438D02*
X134095238Y-58480057D01*
X134095238Y-58480057D02*
X134142857Y-58575295D01*
X134142857Y-58575295D02*
X134142857Y-58670533D01*
X134142857Y-58670533D02*
X134095238Y-58813390D01*
X134095238Y-58813390D02*
X133523810Y-59384819D01*
X133523810Y-59384819D02*
X134142857Y-59384819D01*
X151504761Y-63750057D02*
X151409523Y-63702438D01*
X151409523Y-63702438D02*
X151314285Y-63607200D01*
X151314285Y-63607200D02*
X151171428Y-63464342D01*
X151171428Y-63464342D02*
X151076190Y-63416723D01*
X151076190Y-63416723D02*
X150980952Y-63416723D01*
X151028571Y-63654819D02*
X150933333Y-63607200D01*
X150933333Y-63607200D02*
X150838095Y-63511961D01*
X150838095Y-63511961D02*
X150790476Y-63321485D01*
X150790476Y-63321485D02*
X150790476Y-62988152D01*
X150790476Y-62988152D02*
X150838095Y-62797676D01*
X150838095Y-62797676D02*
X150933333Y-62702438D01*
X150933333Y-62702438D02*
X151028571Y-62654819D01*
X151028571Y-62654819D02*
X151219047Y-62654819D01*
X151219047Y-62654819D02*
X151314285Y-62702438D01*
X151314285Y-62702438D02*
X151409523Y-62797676D01*
X151409523Y-62797676D02*
X151457142Y-62988152D01*
X151457142Y-62988152D02*
X151457142Y-63321485D01*
X151457142Y-63321485D02*
X151409523Y-63511961D01*
X151409523Y-63511961D02*
X151314285Y-63607200D01*
X151314285Y-63607200D02*
X151219047Y-63654819D01*
X151219047Y-63654819D02*
X151028571Y-63654819D01*
X152409523Y-63654819D02*
X151838095Y-63654819D01*
X152123809Y-63654819D02*
X152123809Y-62654819D01*
X152123809Y-62654819D02*
X152028571Y-62797676D01*
X152028571Y-62797676D02*
X151933333Y-62892914D01*
X151933333Y-62892914D02*
X151838095Y-62940533D01*
X153064819Y-68809523D02*
X153779104Y-68809523D01*
X153779104Y-68809523D02*
X153921961Y-68857142D01*
X153921961Y-68857142D02*
X154017200Y-68952380D01*
X154017200Y-68952380D02*
X154064819Y-69095237D01*
X154064819Y-69095237D02*
X154064819Y-69190475D01*
X154064819Y-67809523D02*
X154064819Y-68380951D01*
X154064819Y-68095237D02*
X153064819Y-68095237D01*
X153064819Y-68095237D02*
X153207676Y-68190475D01*
X153207676Y-68190475D02*
X153302914Y-68285713D01*
X153302914Y-68285713D02*
X153350533Y-68380951D01*
X153398152Y-66952380D02*
X154064819Y-66952380D01*
X153017200Y-67190475D02*
X153731485Y-67428570D01*
X153731485Y-67428570D02*
X153731485Y-66809523D01*
X124734819Y-76333333D02*
X125449104Y-76333333D01*
X125449104Y-76333333D02*
X125591961Y-76380952D01*
X125591961Y-76380952D02*
X125687200Y-76476190D01*
X125687200Y-76476190D02*
X125734819Y-76619047D01*
X125734819Y-76619047D02*
X125734819Y-76714285D01*
X124734819Y-75952380D02*
X124734819Y-75285714D01*
X124734819Y-75285714D02*
X125734819Y-75714285D01*
X118166666Y-63934819D02*
X118166666Y-64649104D01*
X118166666Y-64649104D02*
X118119047Y-64791961D01*
X118119047Y-64791961D02*
X118023809Y-64887200D01*
X118023809Y-64887200D02*
X117880952Y-64934819D01*
X117880952Y-64934819D02*
X117785714Y-64934819D01*
X118595238Y-64030057D02*
X118642857Y-63982438D01*
X118642857Y-63982438D02*
X118738095Y-63934819D01*
X118738095Y-63934819D02*
X118976190Y-63934819D01*
X118976190Y-63934819D02*
X119071428Y-63982438D01*
X119071428Y-63982438D02*
X119119047Y-64030057D01*
X119119047Y-64030057D02*
X119166666Y-64125295D01*
X119166666Y-64125295D02*
X119166666Y-64220533D01*
X119166666Y-64220533D02*
X119119047Y-64363390D01*
X119119047Y-64363390D02*
X118547619Y-64934819D01*
X118547619Y-64934819D02*
X119166666Y-64934819D01*
X156990476Y-74054819D02*
X156990476Y-74769104D01*
X156990476Y-74769104D02*
X156942857Y-74911961D01*
X156942857Y-74911961D02*
X156847619Y-75007200D01*
X156847619Y-75007200D02*
X156704762Y-75054819D01*
X156704762Y-75054819D02*
X156609524Y-75054819D01*
X157990476Y-75054819D02*
X157419048Y-75054819D01*
X157704762Y-75054819D02*
X157704762Y-74054819D01*
X157704762Y-74054819D02*
X157609524Y-74197676D01*
X157609524Y-74197676D02*
X157514286Y-74292914D01*
X157514286Y-74292914D02*
X157419048Y-74340533D01*
X158323810Y-74054819D02*
X158942857Y-74054819D01*
X158942857Y-74054819D02*
X158609524Y-74435771D01*
X158609524Y-74435771D02*
X158752381Y-74435771D01*
X158752381Y-74435771D02*
X158847619Y-74483390D01*
X158847619Y-74483390D02*
X158895238Y-74531009D01*
X158895238Y-74531009D02*
X158942857Y-74626247D01*
X158942857Y-74626247D02*
X158942857Y-74864342D01*
X158942857Y-74864342D02*
X158895238Y-74959580D01*
X158895238Y-74959580D02*
X158847619Y-75007200D01*
X158847619Y-75007200D02*
X158752381Y-75054819D01*
X158752381Y-75054819D02*
X158466667Y-75054819D01*
X158466667Y-75054819D02*
X158371429Y-75007200D01*
X158371429Y-75007200D02*
X158323810Y-74959580D01*
X128633333Y-77539580D02*
X128585714Y-77587200D01*
X128585714Y-77587200D02*
X128442857Y-77634819D01*
X128442857Y-77634819D02*
X128347619Y-77634819D01*
X128347619Y-77634819D02*
X128204762Y-77587200D01*
X128204762Y-77587200D02*
X128109524Y-77491961D01*
X128109524Y-77491961D02*
X128061905Y-77396723D01*
X128061905Y-77396723D02*
X128014286Y-77206247D01*
X128014286Y-77206247D02*
X128014286Y-77063390D01*
X128014286Y-77063390D02*
X128061905Y-76872914D01*
X128061905Y-76872914D02*
X128109524Y-76777676D01*
X128109524Y-76777676D02*
X128204762Y-76682438D01*
X128204762Y-76682438D02*
X128347619Y-76634819D01*
X128347619Y-76634819D02*
X128442857Y-76634819D01*
X128442857Y-76634819D02*
X128585714Y-76682438D01*
X128585714Y-76682438D02*
X128633333Y-76730057D01*
X129585714Y-77634819D02*
X129014286Y-77634819D01*
X129300000Y-77634819D02*
X129300000Y-76634819D01*
X129300000Y-76634819D02*
X129204762Y-76777676D01*
X129204762Y-76777676D02*
X129109524Y-76872914D01*
X129109524Y-76872914D02*
X129014286Y-76920533D01*
X120723333Y-65604819D02*
X120390000Y-65128628D01*
X120151905Y-65604819D02*
X120151905Y-64604819D01*
X120151905Y-64604819D02*
X120532857Y-64604819D01*
X120532857Y-64604819D02*
X120628095Y-64652438D01*
X120628095Y-64652438D02*
X120675714Y-64700057D01*
X120675714Y-64700057D02*
X120723333Y-64795295D01*
X120723333Y-64795295D02*
X120723333Y-64938152D01*
X120723333Y-64938152D02*
X120675714Y-65033390D01*
X120675714Y-65033390D02*
X120628095Y-65081009D01*
X120628095Y-65081009D02*
X120532857Y-65128628D01*
X120532857Y-65128628D02*
X120151905Y-65128628D01*
X121580476Y-64938152D02*
X121580476Y-65604819D01*
X121342381Y-64557200D02*
X121104286Y-65271485D01*
X121104286Y-65271485D02*
X121723333Y-65271485D01*
X151433333Y-65054819D02*
X151100000Y-64578628D01*
X150861905Y-65054819D02*
X150861905Y-64054819D01*
X150861905Y-64054819D02*
X151242857Y-64054819D01*
X151242857Y-64054819D02*
X151338095Y-64102438D01*
X151338095Y-64102438D02*
X151385714Y-64150057D01*
X151385714Y-64150057D02*
X151433333Y-64245295D01*
X151433333Y-64245295D02*
X151433333Y-64388152D01*
X151433333Y-64388152D02*
X151385714Y-64483390D01*
X151385714Y-64483390D02*
X151338095Y-64531009D01*
X151338095Y-64531009D02*
X151242857Y-64578628D01*
X151242857Y-64578628D02*
X150861905Y-64578628D01*
X151814286Y-64150057D02*
X151861905Y-64102438D01*
X151861905Y-64102438D02*
X151957143Y-64054819D01*
X151957143Y-64054819D02*
X152195238Y-64054819D01*
X152195238Y-64054819D02*
X152290476Y-64102438D01*
X152290476Y-64102438D02*
X152338095Y-64150057D01*
X152338095Y-64150057D02*
X152385714Y-64245295D01*
X152385714Y-64245295D02*
X152385714Y-64340533D01*
X152385714Y-64340533D02*
X152338095Y-64483390D01*
X152338095Y-64483390D02*
X151766667Y-65054819D01*
X151766667Y-65054819D02*
X152385714Y-65054819D01*
X160066666Y-63934819D02*
X160066666Y-64649104D01*
X160066666Y-64649104D02*
X160019047Y-64791961D01*
X160019047Y-64791961D02*
X159923809Y-64887200D01*
X159923809Y-64887200D02*
X159780952Y-64934819D01*
X159780952Y-64934819D02*
X159685714Y-64934819D01*
X161066666Y-64934819D02*
X160495238Y-64934819D01*
X160780952Y-64934819D02*
X160780952Y-63934819D01*
X160780952Y-63934819D02*
X160685714Y-64077676D01*
X160685714Y-64077676D02*
X160590476Y-64172914D01*
X160590476Y-64172914D02*
X160495238Y-64220533D01*
X122766666Y-58954819D02*
X122766666Y-59669104D01*
X122766666Y-59669104D02*
X122719047Y-59811961D01*
X122719047Y-59811961D02*
X122623809Y-59907200D01*
X122623809Y-59907200D02*
X122480952Y-59954819D01*
X122480952Y-59954819D02*
X122385714Y-59954819D01*
X123147619Y-58954819D02*
X123766666Y-58954819D01*
X123766666Y-58954819D02*
X123433333Y-59335771D01*
X123433333Y-59335771D02*
X123576190Y-59335771D01*
X123576190Y-59335771D02*
X123671428Y-59383390D01*
X123671428Y-59383390D02*
X123719047Y-59431009D01*
X123719047Y-59431009D02*
X123766666Y-59526247D01*
X123766666Y-59526247D02*
X123766666Y-59764342D01*
X123766666Y-59764342D02*
X123719047Y-59859580D01*
X123719047Y-59859580D02*
X123671428Y-59907200D01*
X123671428Y-59907200D02*
X123576190Y-59954819D01*
X123576190Y-59954819D02*
X123290476Y-59954819D01*
X123290476Y-59954819D02*
X123195238Y-59907200D01*
X123195238Y-59907200D02*
X123147619Y-59859580D01*
X126538095Y-63354819D02*
X126538095Y-64164342D01*
X126538095Y-64164342D02*
X126585714Y-64259580D01*
X126585714Y-64259580D02*
X126633333Y-64307200D01*
X126633333Y-64307200D02*
X126728571Y-64354819D01*
X126728571Y-64354819D02*
X126919047Y-64354819D01*
X126919047Y-64354819D02*
X127014285Y-64307200D01*
X127014285Y-64307200D02*
X127061904Y-64259580D01*
X127061904Y-64259580D02*
X127109523Y-64164342D01*
X127109523Y-64164342D02*
X127109523Y-63354819D01*
X128061904Y-63354819D02*
X127585714Y-63354819D01*
X127585714Y-63354819D02*
X127538095Y-63831009D01*
X127538095Y-63831009D02*
X127585714Y-63783390D01*
X127585714Y-63783390D02*
X127680952Y-63735771D01*
X127680952Y-63735771D02*
X127919047Y-63735771D01*
X127919047Y-63735771D02*
X128014285Y-63783390D01*
X128014285Y-63783390D02*
X128061904Y-63831009D01*
X128061904Y-63831009D02*
X128109523Y-63926247D01*
X128109523Y-63926247D02*
X128109523Y-64164342D01*
X128109523Y-64164342D02*
X128061904Y-64259580D01*
X128061904Y-64259580D02*
X128014285Y-64307200D01*
X128014285Y-64307200D02*
X127919047Y-64354819D01*
X127919047Y-64354819D02*
X127680952Y-64354819D01*
X127680952Y-64354819D02*
X127585714Y-64307200D01*
X127585714Y-64307200D02*
X127538095Y-64259580D01*
X155933333Y-68054819D02*
X155600000Y-67578628D01*
X155361905Y-68054819D02*
X155361905Y-67054819D01*
X155361905Y-67054819D02*
X155742857Y-67054819D01*
X155742857Y-67054819D02*
X155838095Y-67102438D01*
X155838095Y-67102438D02*
X155885714Y-67150057D01*
X155885714Y-67150057D02*
X155933333Y-67245295D01*
X155933333Y-67245295D02*
X155933333Y-67388152D01*
X155933333Y-67388152D02*
X155885714Y-67483390D01*
X155885714Y-67483390D02*
X155838095Y-67531009D01*
X155838095Y-67531009D02*
X155742857Y-67578628D01*
X155742857Y-67578628D02*
X155361905Y-67578628D01*
X156266667Y-67054819D02*
X156885714Y-67054819D01*
X156885714Y-67054819D02*
X156552381Y-67435771D01*
X156552381Y-67435771D02*
X156695238Y-67435771D01*
X156695238Y-67435771D02*
X156790476Y-67483390D01*
X156790476Y-67483390D02*
X156838095Y-67531009D01*
X156838095Y-67531009D02*
X156885714Y-67626247D01*
X156885714Y-67626247D02*
X156885714Y-67864342D01*
X156885714Y-67864342D02*
X156838095Y-67959580D01*
X156838095Y-67959580D02*
X156790476Y-68007200D01*
X156790476Y-68007200D02*
X156695238Y-68054819D01*
X156695238Y-68054819D02*
X156409524Y-68054819D01*
X156409524Y-68054819D02*
X156314286Y-68007200D01*
X156314286Y-68007200D02*
X156266667Y-67959580D01*
X138866666Y-63254819D02*
X138866666Y-63969104D01*
X138866666Y-63969104D02*
X138819047Y-64111961D01*
X138819047Y-64111961D02*
X138723809Y-64207200D01*
X138723809Y-64207200D02*
X138580952Y-64254819D01*
X138580952Y-64254819D02*
X138485714Y-64254819D01*
X139819047Y-63254819D02*
X139342857Y-63254819D01*
X139342857Y-63254819D02*
X139295238Y-63731009D01*
X139295238Y-63731009D02*
X139342857Y-63683390D01*
X139342857Y-63683390D02*
X139438095Y-63635771D01*
X139438095Y-63635771D02*
X139676190Y-63635771D01*
X139676190Y-63635771D02*
X139771428Y-63683390D01*
X139771428Y-63683390D02*
X139819047Y-63731009D01*
X139819047Y-63731009D02*
X139866666Y-63826247D01*
X139866666Y-63826247D02*
X139866666Y-64064342D01*
X139866666Y-64064342D02*
X139819047Y-64159580D01*
X139819047Y-64159580D02*
X139771428Y-64207200D01*
X139771428Y-64207200D02*
X139676190Y-64254819D01*
X139676190Y-64254819D02*
X139438095Y-64254819D01*
X139438095Y-64254819D02*
X139342857Y-64207200D01*
X139342857Y-64207200D02*
X139295238Y-64159580D01*
X131533333Y-64254819D02*
X131200000Y-63778628D01*
X130961905Y-64254819D02*
X130961905Y-63254819D01*
X130961905Y-63254819D02*
X131342857Y-63254819D01*
X131342857Y-63254819D02*
X131438095Y-63302438D01*
X131438095Y-63302438D02*
X131485714Y-63350057D01*
X131485714Y-63350057D02*
X131533333Y-63445295D01*
X131533333Y-63445295D02*
X131533333Y-63588152D01*
X131533333Y-63588152D02*
X131485714Y-63683390D01*
X131485714Y-63683390D02*
X131438095Y-63731009D01*
X131438095Y-63731009D02*
X131342857Y-63778628D01*
X131342857Y-63778628D02*
X130961905Y-63778628D01*
X132485714Y-64254819D02*
X131914286Y-64254819D01*
X132200000Y-64254819D02*
X132200000Y-63254819D01*
X132200000Y-63254819D02*
X132104762Y-63397676D01*
X132104762Y-63397676D02*
X132009524Y-63492914D01*
X132009524Y-63492914D02*
X131914286Y-63540533D01*
D14*
%TO.C,J4*%
X152515000Y-61460000D02*
X152515000Y-63060000D01*
X152515000Y-63060000D02*
X154315000Y-63060000D01*
X153785000Y-58590000D02*
X157215000Y-58590000D01*
X154315000Y-63060000D02*
X154315000Y-64000000D01*
X158485000Y-61460000D02*
X158485000Y-63060000D01*
X158485000Y-63060000D02*
X156685000Y-63060000D01*
%TO.C,J10*%
X144380000Y-70220000D02*
X144380000Y-72980000D01*
X152110000Y-70220000D02*
X144380000Y-70220000D01*
X152110000Y-70220000D02*
X152110000Y-72980000D01*
X152110000Y-72980000D02*
X144380000Y-72980000D01*
X153380000Y-70220000D02*
X154760000Y-70220000D01*
X154760000Y-70220000D02*
X154760000Y-71600000D01*
%TO.C,J12*%
X131670000Y-62910000D02*
X131670000Y-63030000D01*
X131670000Y-63030000D02*
X134330000Y-63030000D01*
X133000000Y-60370000D02*
X134330000Y-60370000D01*
X134330000Y-60370000D02*
X134330000Y-61700000D01*
X134330000Y-62910000D02*
X134330000Y-63030000D01*
%TO.C,Q1*%
X147090000Y-58830000D02*
X147090000Y-62430000D01*
X147101522Y-58791522D02*
G75*
G02*
X151540001Y-60630000I1838478J-1838478D01*
G01*
X151540000Y-60630000D02*
G75*
G02*
X147101522Y-62468478I-2600000J0D01*
G01*
%TO.C,J9*%
X140820000Y-65440000D02*
X142200000Y-65440000D01*
X140820000Y-66820000D02*
X140820000Y-65440000D01*
X140820000Y-68090000D02*
X140820000Y-75820000D01*
X140820000Y-68090000D02*
X143580000Y-68090000D01*
X140820000Y-75820000D02*
X143580000Y-75820000D01*
X143580000Y-68090000D02*
X143580000Y-75820000D01*
%TO.C,J14*%
X144430000Y-66670000D02*
X144430000Y-69330000D01*
X149570000Y-66670000D02*
X144430000Y-66670000D01*
X149570000Y-66670000D02*
X149570000Y-69330000D01*
X149570000Y-69330000D02*
X144430000Y-69330000D01*
X152170000Y-68000000D02*
X152170000Y-69330000D01*
X152170000Y-69330000D02*
X150840000Y-69330000D01*
%TO.C,J6*%
X133620000Y-65440000D02*
X135000000Y-65440000D01*
X133620000Y-66820000D02*
X133620000Y-65440000D01*
X133620000Y-68090000D02*
X133620000Y-75820000D01*
X133620000Y-68090000D02*
X136380000Y-68090000D01*
X133620000Y-75820000D02*
X136380000Y-75820000D01*
X136380000Y-68090000D02*
X136380000Y-75820000D01*
%TO.C,J7*%
X113900000Y-74620000D02*
X113900000Y-77380000D01*
X121630000Y-74620000D02*
X113900000Y-74620000D01*
X121630000Y-74620000D02*
X121630000Y-77380000D01*
X121630000Y-77380000D02*
X113900000Y-77380000D01*
X122900000Y-74620000D02*
X124280000Y-74620000D01*
X124280000Y-74620000D02*
X124280000Y-76000000D01*
%TO.C,J2*%
X117120000Y-65480000D02*
X118500000Y-65480000D01*
X117120000Y-66860000D02*
X117120000Y-65480000D01*
X117120000Y-68130000D02*
X117120000Y-73320000D01*
X117120000Y-68130000D02*
X119880000Y-68130000D01*
X117120000Y-73320000D02*
X119880000Y-73320000D01*
X119880000Y-68130000D02*
X119880000Y-73320000D01*
%TO.C,J13*%
X159070000Y-77110000D02*
X159070000Y-77230000D01*
X159070000Y-77230000D02*
X161730000Y-77230000D01*
X160400000Y-74570000D02*
X161730000Y-74570000D01*
X161730000Y-74570000D02*
X161730000Y-75900000D01*
X161730000Y-77110000D02*
X161730000Y-77230000D01*
%TO.C,C1*%
X129061252Y-74765000D02*
X128538748Y-74765000D01*
X129061252Y-76235000D02*
X128538748Y-76235000D01*
%TO.C,R4*%
X121117064Y-62765000D02*
X120662936Y-62765000D01*
X121117064Y-64235000D02*
X120662936Y-64235000D01*
%TO.C,R2*%
X147872936Y-63865000D02*
X148327064Y-63865000D01*
X147872936Y-65335000D02*
X148327064Y-65335000D01*
%TO.C,J1*%
X159020000Y-65480000D02*
X160400000Y-65480000D01*
X159020000Y-66860000D02*
X159020000Y-65480000D01*
X159020000Y-68130000D02*
X159020000Y-73320000D01*
X159020000Y-68130000D02*
X161780000Y-68130000D01*
X159020000Y-73320000D02*
X161780000Y-73320000D01*
X161780000Y-68130000D02*
X161780000Y-73320000D01*
%TO.C,J3*%
X114615000Y-59395000D02*
X114615000Y-62055000D01*
X119755000Y-59395000D02*
X114615000Y-59395000D01*
X119755000Y-59395000D02*
X119755000Y-62055000D01*
X119755000Y-62055000D02*
X114615000Y-62055000D01*
X122355000Y-60725000D02*
X122355000Y-62055000D01*
X122355000Y-62055000D02*
X121025000Y-62055000D01*
%TO.C,U5*%
X127300000Y-64665000D02*
X125350000Y-64665000D01*
X127300000Y-64665000D02*
X129250000Y-64665000D01*
X127300000Y-73535000D02*
X125350000Y-73535000D01*
X127300000Y-73535000D02*
X129250000Y-73535000D01*
X130240000Y-73800000D02*
X129760000Y-73800000D01*
X130000000Y-73470000D01*
X130240000Y-73800000D01*
G36*
X130240000Y-73800000D02*
G01*
X129760000Y-73800000D01*
X130000000Y-73470000D01*
X130240000Y-73800000D01*
G37*
%TO.C,J8*%
X137220000Y-65440000D02*
X138600000Y-65440000D01*
X137220000Y-66820000D02*
X137220000Y-65440000D01*
X137220000Y-68090000D02*
X137220000Y-75820000D01*
X137220000Y-68090000D02*
X139980000Y-68090000D01*
X137220000Y-75820000D02*
X139980000Y-75820000D01*
X139980000Y-68090000D02*
X139980000Y-75820000D01*
%TO.C,J11*%
X144380000Y-73820000D02*
X144380000Y-76580000D01*
X152110000Y-73820000D02*
X144380000Y-73820000D01*
X152110000Y-73820000D02*
X152110000Y-76580000D01*
X152110000Y-76580000D02*
X144380000Y-76580000D01*
X153380000Y-73820000D02*
X154760000Y-73820000D01*
X154760000Y-73820000D02*
X154760000Y-75200000D01*
%TO.C,R3*%
X155427064Y-65165000D02*
X154972936Y-65165000D01*
X155427064Y-66635000D02*
X154972936Y-66635000D01*
%TO.C,J5*%
X138890000Y-61460000D02*
X138890000Y-63060000D01*
X138890000Y-63060000D02*
X140690000Y-63060000D01*
X140160000Y-58590000D02*
X144840000Y-58590000D01*
X140690000Y-63060000D02*
X140690000Y-64000000D01*
X146110000Y-61460000D02*
X146110000Y-63060000D01*
X146110000Y-63060000D02*
X144310000Y-63060000D01*
%TO.C,R1*%
X129065000Y-62372936D02*
X129065000Y-62827064D01*
X130535000Y-62372936D02*
X130535000Y-62827064D01*
%TD*%
M02*
