M48
; DRILL file {KiCad 9.0.3-9.0.3-0~ubuntu24.04.1} date 2026-01-26T20:30:14+0100
; FORMAT={-:-/ absolute / inch / decimal}
; #@! TF.CreationDate,2026-01-26T20:30:14+01:00
; #@! TF.GenerationSoftware,Kicad,Pcbnew,9.0.3-9.0.3-0~ubuntu24.04.1
; #@! TF.FileFunction,Plated,1,2,PTH
FMAT,2
INCH
; #@! TA.AperFunction,Plated,PTH,ViaDrill
T1C0.0118
; #@! TA.AperFunction,Plated,PTH,ComponentDrill
T2C0.0295
; #@! TA.AperFunction,Plated,PTH,ComponentDrill
T3C0.0394
%
G90
G05
T1
X4.878Y-2.9134
X4.9528Y-2.4291
X4.9685Y-2.9843
X5.0157Y-3.0354
X5.0912Y-3.04
X5.1693Y-2.7205
X5.4094Y-2.3268
X5.4094Y-2.4724
X5.6098Y-2.328
X5.752Y-2.5433
X5.7953Y-2.3386
X5.9094Y-2.5433
X5.9331Y-2.3386
T2
X5.8638Y-2.337
X5.8638Y-2.387
X5.8638Y-2.437
T3
X4.5386Y-2.9921
X4.5648Y-2.3907
X4.6386Y-2.9921
X4.6648Y-2.3907
X4.6654Y-2.6323
X4.6654Y-2.7323
X4.6654Y-2.8323
X4.7386Y-2.9921
X4.7648Y-2.3907
X4.8386Y-2.9921
X5.2362Y-2.4291
X5.315Y-2.6307
X5.315Y-2.7307
X5.315Y-2.8307
X5.315Y-2.9307
X5.4567Y-2.6307
X5.4567Y-2.7307
X5.4567Y-2.8307
X5.4567Y-2.9307
X5.5984Y-2.6307
X5.5984Y-2.7307
X5.5984Y-2.8307
X5.5984Y-2.9307
X5.7386Y-2.6772
X5.7386Y-2.8189
X5.7386Y-2.9606
X5.8386Y-2.6772
X5.8386Y-2.8189
X5.8386Y-2.9606
X5.9386Y-2.6772
X5.9386Y-2.8189
X5.9386Y-2.9606
X6.0386Y-2.8189
X6.0386Y-2.9606
X6.315Y-2.6323
X6.315Y-2.7323
X6.315Y-2.8323
X6.315Y-2.9882
M30
