%TF.GenerationSoftware,KiCad,Pcbnew,9.0.3-9.0.3-0~ubuntu24.04.1*%
%TF.CreationDate,2026-01-26T20:29:58+01:00*%
%TF.ProjectId,IRsensormodule,49527365-6e73-46f7-926d-6f64756c652e,rev?*%
%TF.SameCoordinates,Original*%
%TF.FileFunction,Soldermask,Top*%
%TF.FilePolarity,Negative*%
%FSLAX46Y46*%
G04 Gerber Fmt 4.6, Leading zero omitted, Abs format (unit mm)*
G04 Created by KiCad (PCBNEW 9.0.3-9.0.3-0~ubuntu24.04.1) date 2026-01-26 20:29:58*
%MOMM*%
%LPD*%
G01*
G04 APERTURE LIST*
G04 Aperture macros list*
%AMRoundRect*
0 Rectangle with rounded corners*
0 $1 Rounding radius*
0 $2 $3 $4 $5 $6 $7 $8 $9 X,Y pos of 4 corners*
0 Add a 4 corners polygon primitive as box body*
4,1,4,$2,$3,$4,$5,$6,$7,$8,$9,$2,$3,0*
0 Add four circle primitives for the rounded corners*
1,1,$1+$1,$2,$3*
1,1,$1+$1,$4,$5*
1,1,$1+$1,$6,$7*
1,1,$1+$1,$8,$9*
0 Add four rect primitives between the rounded corners*
20,1,$1+$1,$2,$3,$4,$5,0*
20,1,$1+$1,$4,$5,$6,$7,0*
20,1,$1+$1,$6,$7,$8,$9,0*
20,1,$1+$1,$8,$9,$2,$3,0*%
G04 Aperture macros list end*
%ADD10RoundRect,0.150000X-0.150000X-0.700000X0.150000X-0.700000X0.150000X0.700000X-0.150000X0.700000X0*%
%ADD11RoundRect,0.250000X-0.250000X-1.150000X0.250000X-1.150000X0.250000X1.150000X-0.250000X1.150000X0*%
%ADD12R,1.700000X1.700000*%
%ADD13C,1.700000*%
%ADD14R,1.500000X1.050000*%
%ADD15O,1.500000X1.050000*%
%ADD16RoundRect,0.250000X0.250000X0.475000X-0.250000X0.475000X-0.250000X-0.475000X0.250000X-0.475000X0*%
%ADD17RoundRect,0.250000X0.262500X0.450000X-0.262500X0.450000X-0.262500X-0.450000X0.262500X-0.450000X0*%
%ADD18RoundRect,0.250000X-0.262500X-0.450000X0.262500X-0.450000X0.262500X0.450000X-0.262500X0.450000X0*%
%ADD19RoundRect,0.150000X0.825000X0.150000X-0.825000X0.150000X-0.825000X-0.150000X0.825000X-0.150000X0*%
%ADD20RoundRect,0.250000X-0.450000X0.262500X-0.450000X-0.262500X0.450000X-0.262500X0.450000X0.262500X0*%
G04 APERTURE END LIST*
D10*
%TO.C,J4*%
X154875000Y-63150000D03*
X156125000Y-63150000D03*
D11*
X153025000Y-59800000D03*
X157975000Y-59800000D03*
%TD*%
D12*
%TO.C,J10*%
X153380000Y-71600000D03*
D13*
X150840000Y-71600000D03*
X148300000Y-71600000D03*
X145760000Y-71600000D03*
%TD*%
D12*
%TO.C,J12*%
X133000000Y-61700000D03*
%TD*%
D14*
%TO.C,Q1*%
X148940000Y-59360000D03*
D15*
X148940000Y-60630000D03*
X148940000Y-61900000D03*
%TD*%
D12*
%TO.C,J9*%
X142200000Y-66820000D03*
D13*
X142200000Y-69360000D03*
X142200000Y-71900000D03*
X142200000Y-74440000D03*
%TD*%
D12*
%TO.C,J14*%
X150840000Y-68000000D03*
D13*
X148300000Y-68000000D03*
X145760000Y-68000000D03*
%TD*%
D12*
%TO.C,J6*%
X135000000Y-66820000D03*
D13*
X135000000Y-69360000D03*
X135000000Y-71900000D03*
X135000000Y-74440000D03*
%TD*%
D12*
%TO.C,J7*%
X122900000Y-76000000D03*
D13*
X120360000Y-76000000D03*
X117820000Y-76000000D03*
X115280000Y-76000000D03*
%TD*%
D12*
%TO.C,J2*%
X118500000Y-66860000D03*
D13*
X118500000Y-69400000D03*
X118500000Y-71940000D03*
%TD*%
D12*
%TO.C,J13*%
X160400000Y-75900000D03*
%TD*%
D16*
%TO.C,C1*%
X129750000Y-75500000D03*
X127850000Y-75500000D03*
%TD*%
D17*
%TO.C,R4*%
X121802500Y-63500000D03*
X119977500Y-63500000D03*
%TD*%
D18*
%TO.C,R2*%
X147187500Y-64600000D03*
X149012500Y-64600000D03*
%TD*%
D12*
%TO.C,J1*%
X160400000Y-66860000D03*
D13*
X160400000Y-69400000D03*
X160400000Y-71940000D03*
%TD*%
D12*
%TO.C,J3*%
X121025000Y-60725000D03*
D13*
X118485000Y-60725000D03*
X115945000Y-60725000D03*
%TD*%
D19*
%TO.C,U5*%
X129775000Y-72910000D03*
X129775000Y-71640000D03*
X129775000Y-70370000D03*
X129775000Y-69100000D03*
X129775000Y-67830000D03*
X129775000Y-66560000D03*
X129775000Y-65290000D03*
X124825000Y-65290000D03*
X124825000Y-66560000D03*
X124825000Y-67830000D03*
X124825000Y-69100000D03*
X124825000Y-70370000D03*
X124825000Y-71640000D03*
X124825000Y-72910000D03*
%TD*%
D12*
%TO.C,J8*%
X138600000Y-66820000D03*
D13*
X138600000Y-69360000D03*
X138600000Y-71900000D03*
X138600000Y-74440000D03*
%TD*%
D12*
%TO.C,J11*%
X153380000Y-75200000D03*
D13*
X150840000Y-75200000D03*
X148300000Y-75200000D03*
X145760000Y-75200000D03*
%TD*%
D17*
%TO.C,R3*%
X156112500Y-65900000D03*
X154287500Y-65900000D03*
%TD*%
D10*
%TO.C,J5*%
X141250000Y-63150000D03*
X142500000Y-63150000D03*
X143750000Y-63150000D03*
D11*
X139400000Y-59800000D03*
X145600000Y-59800000D03*
%TD*%
D20*
%TO.C,R1*%
X129800000Y-61687500D03*
X129800000Y-63512500D03*
%TD*%
M02*
