%TF.GenerationSoftware,KiCad,Pcbnew,9.0.3-9.0.3-0~ubuntu24.04.1*%
%TF.CreationDate,2026-01-26T20:29:57+01:00*%
%TF.ProjectId,IRsensormodule,49527365-6e73-46f7-926d-6f64756c652e,rev?*%
%TF.SameCoordinates,Original*%
%TF.FileFunction,Copper,L2,Bot*%
%TF.FilePolarity,Positive*%
%FSLAX46Y46*%
G04 Gerber Fmt 4.6, Leading zero omitted, Abs format (unit mm)*
G04 Created by KiCad (PCBNEW 9.0.3-9.0.3-0~ubuntu24.04.1) date 2026-01-26 20:29:57*
%MOMM*%
%LPD*%
G01*
G04 APERTURE LIST*
%TA.AperFunction,ComponentPad*%
%ADD10R,1.700000X1.700000*%
%TD*%
%TA.AperFunction,ComponentPad*%
%ADD11C,1.700000*%
%TD*%
%TA.AperFunction,ComponentPad*%
%ADD12R,1.500000X1.050000*%
%TD*%
%TA.AperFunction,ComponentPad*%
%ADD13O,1.500000X1.050000*%
%TD*%
%TA.AperFunction,ViaPad*%
%ADD14C,0.600000*%
%TD*%
%TA.AperFunction,Conductor*%
%ADD15C,0.600000*%
%TD*%
%TA.AperFunction,Conductor*%
%ADD16C,0.200000*%
%TD*%
G04 APERTURE END LIST*
D10*
%TO.P,J10,1,Pin_1*%
%TO.N,unconnected-(J10-Pin_1-Pad1)*%
X153380000Y-71600000D03*
D11*
%TO.P,J10,2,Pin_2*%
%TO.N,unconnected-(J10-Pin_2-Pad2)*%
X150840000Y-71600000D03*
%TO.P,J10,3,Pin_3*%
%TO.N,unconnected-(J10-Pin_3-Pad3)*%
X148300000Y-71600000D03*
%TO.P,J10,4,Pin_4*%
%TO.N,unconnected-(J10-Pin_4-Pad4)*%
X145760000Y-71600000D03*
%TD*%
D10*
%TO.P,J12,1,Pin_1*%
%TO.N,+3V3*%
X133000000Y-61700000D03*
%TD*%
D12*
%TO.P,Q1,1,E*%
%TO.N,GND*%
X148940000Y-59360000D03*
D13*
%TO.P,Q1,2,B*%
%TO.N,Net-(Q1-B)*%
X148940000Y-60630000D03*
%TO.P,Q1,3,C*%
%TO.N,/emitreceive*%
X148940000Y-61900000D03*
%TD*%
D10*
%TO.P,J9,1,Pin_1*%
%TO.N,unconnected-(J9-Pin_1-Pad1)*%
X142200000Y-66820000D03*
D11*
%TO.P,J9,2,Pin_2*%
%TO.N,unconnected-(J9-Pin_2-Pad2)*%
X142200000Y-69360000D03*
%TO.P,J9,3,Pin_3*%
%TO.N,unconnected-(J9-Pin_3-Pad3)*%
X142200000Y-71900000D03*
%TO.P,J9,4,Pin_4*%
%TO.N,unconnected-(J9-Pin_4-Pad4)*%
X142200000Y-74440000D03*
%TD*%
D10*
%TO.P,J14,1,Pin_1*%
%TO.N,unconnected-(J14-Pin_1-Pad1)*%
X150840000Y-68000000D03*
D11*
%TO.P,J14,2,Pin_2*%
%TO.N,unconnected-(J14-Pin_2-Pad2)*%
X148300000Y-68000000D03*
%TO.P,J14,3,Pin_3*%
%TO.N,unconnected-(J14-Pin_3-Pad3)*%
X145760000Y-68000000D03*
%TD*%
D10*
%TO.P,J6,1,Pin_1*%
%TO.N,/PB3*%
X135000000Y-66820000D03*
D11*
%TO.P,J6,2,Pin_2*%
%TO.N,/PB2*%
X135000000Y-69360000D03*
%TO.P,J6,3,Pin_3*%
%TO.N,/PA5*%
X135000000Y-71900000D03*
%TO.P,J6,4,Pin_4*%
%TO.N,/PA4*%
X135000000Y-74440000D03*
%TD*%
D10*
%TO.P,J7,1,Pin_1*%
%TO.N,/PA3*%
X122900000Y-76000000D03*
D11*
%TO.P,J7,2,Pin_2*%
%TO.N,/PA2*%
X120360000Y-76000000D03*
%TO.P,J7,3,Pin_3*%
%TO.N,/PA1*%
X117820000Y-76000000D03*
%TO.P,J7,4,Pin_4*%
%TO.N,unconnected-(J7-Pin_4-Pad4)*%
X115280000Y-76000000D03*
%TD*%
D10*
%TO.P,J2,1,Pin_1*%
%TO.N,/SCL*%
X118500000Y-66860000D03*
D11*
%TO.P,J2,2,Pin_2*%
%TO.N,/SDA*%
X118500000Y-69400000D03*
%TO.P,J2,3,Pin_3*%
%TO.N,/SMBA*%
X118500000Y-71940000D03*
%TD*%
D10*
%TO.P,J13,1,Pin_1*%
%TO.N,+3V3*%
X160400000Y-75900000D03*
%TD*%
%TO.P,J1,1,Pin_1*%
%TO.N,+3V3*%
X160400000Y-66860000D03*
D11*
%TO.P,J1,2,Pin_2*%
%TO.N,/VBAT*%
X160400000Y-69400000D03*
%TO.P,J1,3,Pin_3*%
%TO.N,GND*%
X160400000Y-71940000D03*
%TD*%
D10*
%TO.P,J3,1,Pin_1*%
%TO.N,+3V3*%
X121025000Y-60725000D03*
D11*
%TO.P,J3,2,Pin_2*%
%TO.N,Net-(J3-Pin_2)*%
X118485000Y-60725000D03*
%TO.P,J3,3,Pin_3*%
%TO.N,GND*%
X115945000Y-60725000D03*
%TD*%
D10*
%TO.P,J8,1,Pin_1*%
%TO.N,unconnected-(J8-Pin_1-Pad1)*%
X138600000Y-66820000D03*
D11*
%TO.P,J8,2,Pin_2*%
%TO.N,unconnected-(J8-Pin_2-Pad2)*%
X138600000Y-69360000D03*
%TO.P,J8,3,Pin_3*%
%TO.N,unconnected-(J8-Pin_3-Pad3)*%
X138600000Y-71900000D03*
%TO.P,J8,4,Pin_4*%
%TO.N,unconnected-(J8-Pin_4-Pad4)*%
X138600000Y-74440000D03*
%TD*%
D10*
%TO.P,J11,1,Pin_1*%
%TO.N,unconnected-(J11-Pin_1-Pad1)*%
X153380000Y-75200000D03*
D11*
%TO.P,J11,2,Pin_2*%
%TO.N,unconnected-(J11-Pin_2-Pad2)*%
X150840000Y-75200000D03*
%TO.P,J11,3,Pin_3*%
%TO.N,unconnected-(J11-Pin_3-Pad3)*%
X148300000Y-75200000D03*
%TO.P,J11,4,Pin_4*%
%TO.N,unconnected-(J11-Pin_4-Pad4)*%
X145760000Y-75200000D03*
%TD*%
D14*
%TO.N,+3V3*%
X129317218Y-77217217D03*
X125800000Y-61700000D03*
%TO.N,GND*%
X147200000Y-59400000D03*
X150700000Y-59400000D03*
X127400000Y-77100000D03*
X142490000Y-59130000D03*
X126200000Y-75800000D03*
X123900000Y-74000000D03*
X137400000Y-62800000D03*
X137400000Y-59100000D03*
%TO.N,Net-(Q1-B)*%
X150100000Y-64600000D03*
%TO.N,/IRledcontrol*%
X146100000Y-64600000D03*
X131300000Y-69100000D03*
%TD*%
D15*
%TO.N,+3V3*%
X129317218Y-77217217D02*
X125800000Y-73700000D01*
X125800000Y-73700000D02*
X125800000Y-61700000D01*
D16*
%TO.N,Net-(Q1-B)*%
X150100000Y-61360000D02*
X149440000Y-60700000D01*
X149440000Y-60700000D02*
X148940000Y-60700000D01*
X150100000Y-64600000D02*
X150100000Y-61360000D01*
%TO.N,/IRledcontrol*%
X131300000Y-69100000D02*
X131900000Y-68500000D01*
X131900000Y-68200000D02*
X131900000Y-66600000D01*
X131900000Y-68500000D02*
X131900000Y-68200000D01*
X131900000Y-66600000D02*
X133900000Y-64600000D01*
X133900000Y-64600000D02*
X146100000Y-64600000D01*
%TD*%
%TA.AperFunction,Conductor*%
%TO.N,GND*%
G36*
X147784863Y-58320185D02*
G01*
X147830618Y-58372989D01*
X147840562Y-58442147D01*
X147817090Y-58498811D01*
X147746649Y-58592906D01*
X147746645Y-58592913D01*
X147696403Y-58727620D01*
X147696401Y-58727627D01*
X147690000Y-58787155D01*
X147690000Y-59110000D01*
X148659670Y-59110000D01*
X148639925Y-59129745D01*
X148590556Y-59215255D01*
X148565000Y-59310630D01*
X148565000Y-59409370D01*
X148590556Y-59504745D01*
X148639925Y-59590255D01*
X148654170Y-59604500D01*
X148613997Y-59604500D01*
X148613996Y-59604500D01*
X148598326Y-59607617D01*
X148574134Y-59610000D01*
X147690000Y-59610000D01*
X147690000Y-59932844D01*
X147696401Y-59992372D01*
X147696403Y-59992379D01*
X147746645Y-60127086D01*
X147747251Y-60127895D01*
X147747604Y-60128841D01*
X147750897Y-60134872D01*
X147750030Y-60135345D01*
X147771670Y-60193359D01*
X147762547Y-60249661D01*
X147728910Y-60330868D01*
X147728907Y-60330880D01*
X147689500Y-60528992D01*
X147689500Y-60731007D01*
X147728907Y-60929119D01*
X147728909Y-60929127D01*
X147806213Y-61115755D01*
X147859904Y-61196109D01*
X147880782Y-61262787D01*
X147862297Y-61330167D01*
X147859904Y-61333891D01*
X147806213Y-61414244D01*
X147728909Y-61600872D01*
X147728907Y-61600880D01*
X147689500Y-61798992D01*
X147689500Y-62001007D01*
X147728907Y-62199119D01*
X147728909Y-62199127D01*
X147806212Y-62385752D01*
X147806217Y-62385762D01*
X147918441Y-62553718D01*
X148061281Y-62696558D01*
X148229237Y-62808782D01*
X148229241Y-62808784D01*
X148229244Y-62808786D01*
X148415873Y-62886091D01*
X148559998Y-62914759D01*
X148613992Y-62925499D01*
X148613996Y-62925500D01*
X148613997Y-62925500D01*
X149266004Y-62925500D01*
X149266004Y-62925499D01*
X149320002Y-62914759D01*
X149351309Y-62908532D01*
X149420900Y-62914759D01*
X149476078Y-62957622D01*
X149499322Y-63023512D01*
X149499500Y-63030149D01*
X149499500Y-64020234D01*
X149479815Y-64087273D01*
X149478602Y-64089125D01*
X149390609Y-64220814D01*
X149390602Y-64220827D01*
X149330264Y-64366498D01*
X149330261Y-64366510D01*
X149299500Y-64521153D01*
X149299500Y-64678846D01*
X149330261Y-64833489D01*
X149330264Y-64833501D01*
X149390602Y-64979172D01*
X149390609Y-64979185D01*
X149478210Y-65110288D01*
X149478213Y-65110292D01*
X149589707Y-65221786D01*
X149589711Y-65221789D01*
X149720814Y-65309390D01*
X149720827Y-65309397D01*
X149797569Y-65341184D01*
X149866503Y-65369737D01*
X150003618Y-65397011D01*
X150021153Y-65400499D01*
X150021156Y-65400500D01*
X150021158Y-65400500D01*
X150178844Y-65400500D01*
X150178845Y-65400499D01*
X150333497Y-65369737D01*
X150479179Y-65309394D01*
X150610289Y-65221789D01*
X150721789Y-65110289D01*
X150809394Y-64979179D01*
X150869737Y-64833497D01*
X150900500Y-64678842D01*
X150900500Y-64521158D01*
X150900500Y-64521155D01*
X150900499Y-64521153D01*
X150869738Y-64366510D01*
X150869737Y-64366503D01*
X150813728Y-64231284D01*
X150809397Y-64220827D01*
X150809390Y-64220814D01*
X150721398Y-64089125D01*
X150700520Y-64022447D01*
X150700500Y-64020234D01*
X150700500Y-61449059D01*
X150700501Y-61449046D01*
X150700501Y-61280945D01*
X150700501Y-61280943D01*
X150659577Y-61128215D01*
X150619122Y-61058145D01*
X150580520Y-60991284D01*
X150468716Y-60879480D01*
X150468715Y-60879479D01*
X150464385Y-60875149D01*
X150464374Y-60875139D01*
X150226819Y-60637584D01*
X150193334Y-60576261D01*
X150190500Y-60549903D01*
X150190500Y-60528996D01*
X150190499Y-60528992D01*
X150166583Y-60408757D01*
X150151091Y-60330873D01*
X150117451Y-60249661D01*
X150109983Y-60180194D01*
X150129592Y-60135144D01*
X150129101Y-60134876D01*
X150132102Y-60129379D01*
X150132748Y-60127896D01*
X150133352Y-60127089D01*
X150183597Y-59992376D01*
X150183598Y-59992372D01*
X150189999Y-59932844D01*
X150190000Y-59932827D01*
X150190000Y-59610000D01*
X149305866Y-59610000D01*
X149281674Y-59607617D01*
X149266004Y-59604500D01*
X149266003Y-59604500D01*
X149225830Y-59604500D01*
X149240075Y-59590255D01*
X149289444Y-59504745D01*
X149315000Y-59409370D01*
X149315000Y-59310630D01*
X149289444Y-59215255D01*
X149240075Y-59129745D01*
X149220330Y-59110000D01*
X150190000Y-59110000D01*
X150190000Y-58787172D01*
X150189999Y-58787155D01*
X150183598Y-58727627D01*
X150183596Y-58727620D01*
X150133354Y-58592913D01*
X150133350Y-58592906D01*
X150062910Y-58498811D01*
X150038492Y-58433347D01*
X150053343Y-58365074D01*
X150102748Y-58315668D01*
X150162176Y-58300500D01*
X166675500Y-58300500D01*
X166742539Y-58320185D01*
X166788294Y-58372989D01*
X166799500Y-58424500D01*
X166799500Y-77675500D01*
X166779815Y-77742539D01*
X166727011Y-77788294D01*
X166675500Y-77799500D01*
X130122891Y-77799500D01*
X130055852Y-77779815D01*
X130010097Y-77727011D01*
X130000153Y-77657853D01*
X130019787Y-77606611D01*
X130022553Y-77602470D01*
X130026612Y-77596396D01*
X130086956Y-77450714D01*
X130117718Y-77296060D01*
X130117718Y-77138375D01*
X130086956Y-76983720D01*
X130026612Y-76838038D01*
X130026610Y-76838035D01*
X130026608Y-76838031D01*
X129939007Y-76706928D01*
X129939004Y-76706924D01*
X126636819Y-73404739D01*
X126603334Y-73343416D01*
X126600500Y-73317058D01*
X126600500Y-69021153D01*
X130499500Y-69021153D01*
X130499500Y-69178846D01*
X130530261Y-69333489D01*
X130530264Y-69333501D01*
X130590602Y-69479172D01*
X130590609Y-69479185D01*
X130678210Y-69610288D01*
X130678213Y-69610292D01*
X130789707Y-69721786D01*
X130789711Y-69721789D01*
X130920814Y-69809390D01*
X130920827Y-69809397D01*
X131066498Y-69869735D01*
X131066503Y-69869737D01*
X131221153Y-69900499D01*
X131221156Y-69900500D01*
X131221158Y-69900500D01*
X131378844Y-69900500D01*
X131378845Y-69900499D01*
X131533497Y-69869737D01*
X131679179Y-69809394D01*
X131810289Y-69721789D01*
X131921789Y-69610289D01*
X132009394Y-69479179D01*
X132069737Y-69333497D01*
X132100500Y-69178842D01*
X132100500Y-69178839D01*
X132100637Y-69178151D01*
X132109402Y-69161394D01*
X132113422Y-69142915D01*
X132132162Y-69117880D01*
X132133021Y-69116240D01*
X132134527Y-69114707D01*
X132258504Y-68990729D01*
X132258506Y-68990729D01*
X132268714Y-68980520D01*
X132268716Y-68980520D01*
X132380520Y-68868716D01*
X132443531Y-68759577D01*
X132459577Y-68731785D01*
X132500500Y-68579057D01*
X132500500Y-68420943D01*
X132500500Y-68120943D01*
X132500500Y-66900097D01*
X132520185Y-66833058D01*
X132536819Y-66812416D01*
X132981026Y-66368209D01*
X133437821Y-65911413D01*
X133499142Y-65877930D01*
X133568833Y-65882914D01*
X133624767Y-65924786D01*
X133649184Y-65990250D01*
X133649500Y-65999096D01*
X133649500Y-67717870D01*
X133649501Y-67717876D01*
X133655908Y-67777483D01*
X133706202Y-67912328D01*
X133706206Y-67912335D01*
X133792452Y-68027544D01*
X133792455Y-68027547D01*
X133907664Y-68113793D01*
X133907671Y-68113797D01*
X134039082Y-68162810D01*
X134095016Y-68204681D01*
X134119433Y-68270145D01*
X134104582Y-68338418D01*
X134083431Y-68366673D01*
X133969889Y-68480215D01*
X133844951Y-68652179D01*
X133748444Y-68841585D01*
X133682753Y-69043760D01*
X133649500Y-69253713D01*
X133649500Y-69466286D01*
X133672307Y-69610288D01*
X133682754Y-69676243D01*
X133745624Y-69869737D01*
X133748444Y-69878414D01*
X133844951Y-70067820D01*
X133969890Y-70239786D01*
X134120213Y-70390109D01*
X134292182Y-70515050D01*
X134300946Y-70519516D01*
X134351742Y-70567491D01*
X134368536Y-70635312D01*
X134345998Y-70701447D01*
X134300946Y-70740484D01*
X134292182Y-70744949D01*
X134120213Y-70869890D01*
X133969890Y-71020213D01*
X133844951Y-71192179D01*
X133748444Y-71381585D01*
X133682753Y-71583760D01*
X133649500Y-71793713D01*
X133649500Y-72006287D01*
X133682754Y-72216243D01*
X133722997Y-72340099D01*
X133748444Y-72418414D01*
X133844951Y-72607820D01*
X133969890Y-72779786D01*
X134120213Y-72930109D01*
X134292182Y-73055050D01*
X134300946Y-73059516D01*
X134351742Y-73107491D01*
X134368536Y-73175312D01*
X134345998Y-73241447D01*
X134300946Y-73280484D01*
X134292182Y-73284949D01*
X134120213Y-73409890D01*
X133969890Y-73560213D01*
X133844951Y-73732179D01*
X133748444Y-73921585D01*
X133682753Y-74123760D01*
X133649500Y-74333713D01*
X133649500Y-74546286D01*
X133681518Y-74748444D01*
X133682754Y-74756243D01*
X133743278Y-74942517D01*
X133748444Y-74958414D01*
X133844951Y-75147820D01*
X133969890Y-75319786D01*
X134120213Y-75470109D01*
X134292179Y-75595048D01*
X134292181Y-75595049D01*
X134292184Y-75595051D01*
X134481588Y-75691557D01*
X134683757Y-75757246D01*
X134893713Y-75790500D01*
X134893714Y-75790500D01*
X135106286Y-75790500D01*
X135106287Y-75790500D01*
X135316243Y-75757246D01*
X135518412Y-75691557D01*
X135707816Y-75595051D01*
X135816287Y-75516243D01*
X135879786Y-75470109D01*
X135879788Y-75470106D01*
X135879792Y-75470104D01*
X136030104Y-75319792D01*
X136030106Y-75319788D01*
X136030109Y-75319786D01*
X136155048Y-75147820D01*
X136155049Y-75147819D01*
X136155051Y-75147816D01*
X136251557Y-74958412D01*
X136317246Y-74756243D01*
X136350500Y-74546287D01*
X136350500Y-74333713D01*
X136317246Y-74123757D01*
X136251557Y-73921588D01*
X136155051Y-73732184D01*
X136155049Y-73732181D01*
X136155048Y-73732179D01*
X136030109Y-73560213D01*
X135879786Y-73409890D01*
X135707820Y-73284951D01*
X135707115Y-73284591D01*
X135699054Y-73280485D01*
X135648259Y-73232512D01*
X135631463Y-73164692D01*
X135653999Y-73098556D01*
X135699054Y-73059515D01*
X135707816Y-73055051D01*
X135729789Y-73039086D01*
X135879786Y-72930109D01*
X135879788Y-72930106D01*
X135879792Y-72930104D01*
X136030104Y-72779792D01*
X136030106Y-72779788D01*
X136030109Y-72779786D01*
X136155048Y-72607820D01*
X136155047Y-72607820D01*
X136155051Y-72607816D01*
X136251557Y-72418412D01*
X136317246Y-72216243D01*
X136350500Y-72006287D01*
X136350500Y-71793713D01*
X136317246Y-71583757D01*
X136251557Y-71381588D01*
X136155051Y-71192184D01*
X136155049Y-71192181D01*
X136155048Y-71192179D01*
X136030109Y-71020213D01*
X135879786Y-70869890D01*
X135707820Y-70744951D01*
X135707115Y-70744591D01*
X135699054Y-70740485D01*
X135648259Y-70692512D01*
X135631463Y-70624692D01*
X135653999Y-70558556D01*
X135699054Y-70519515D01*
X135707816Y-70515051D01*
X135804304Y-70444949D01*
X135879786Y-70390109D01*
X135879788Y-70390106D01*
X135879792Y-70390104D01*
X136030104Y-70239792D01*
X136030106Y-70239788D01*
X136030109Y-70239786D01*
X136155048Y-70067820D01*
X136155047Y-70067820D01*
X136155051Y-70067816D01*
X136251557Y-69878412D01*
X136317246Y-69676243D01*
X136350500Y-69466287D01*
X136350500Y-69253713D01*
X136317246Y-69043757D01*
X136251557Y-68841588D01*
X136155051Y-68652184D01*
X136155049Y-68652181D01*
X136155048Y-68652179D01*
X136030109Y-68480213D01*
X135916569Y-68366673D01*
X135883084Y-68305350D01*
X135888068Y-68235658D01*
X135929940Y-68179725D01*
X135960915Y-68162810D01*
X136092331Y-68113796D01*
X136207546Y-68027546D01*
X136293796Y-67912331D01*
X136344091Y-67777483D01*
X136350500Y-67717873D01*
X136350499Y-65922135D01*
X137249500Y-65922135D01*
X137249500Y-67717870D01*
X137249501Y-67717876D01*
X137255908Y-67777483D01*
X137306202Y-67912328D01*
X137306206Y-67912335D01*
X137392452Y-68027544D01*
X137392455Y-68027547D01*
X137507664Y-68113793D01*
X137507671Y-68113797D01*
X137639082Y-68162810D01*
X137695016Y-68204681D01*
X137719433Y-68270145D01*
X137704582Y-68338418D01*
X137683431Y-68366673D01*
X137569889Y-68480215D01*
X137444951Y-68652179D01*
X137348444Y-68841585D01*
X137282753Y-69043760D01*
X137249500Y-69253713D01*
X137249500Y-69466286D01*
X137272307Y-69610288D01*
X137282754Y-69676243D01*
X137345624Y-69869737D01*
X137348444Y-69878414D01*
X137444951Y-70067820D01*
X137569890Y-70239786D01*
X137720213Y-70390109D01*
X137892182Y-70515050D01*
X137900946Y-70519516D01*
X137951742Y-70567491D01*
X137968536Y-70635312D01*
X137945998Y-70701447D01*
X137900946Y-70740484D01*
X137892182Y-70744949D01*
X137720213Y-70869890D01*
X137569890Y-71020213D01*
X137444951Y-71192179D01*
X137348444Y-71381585D01*
X137282753Y-71583760D01*
X137249500Y-71793713D01*
X137249500Y-72006287D01*
X137282754Y-72216243D01*
X137322997Y-72340099D01*
X137348444Y-72418414D01*
X137444951Y-72607820D01*
X137569890Y-72779786D01*
X137720213Y-72930109D01*
X137892182Y-73055050D01*
X137900946Y-73059516D01*
X137951742Y-73107491D01*
X137968536Y-73175312D01*
X137945998Y-73241447D01*
X137900946Y-73280484D01*
X137892182Y-73284949D01*
X137720213Y-73409890D01*
X137569890Y-73560213D01*
X137444951Y-73732179D01*
X137348444Y-73921585D01*
X137282753Y-74123760D01*
X137249500Y-74333713D01*
X137249500Y-74546286D01*
X137281518Y-74748444D01*
X137282754Y-74756243D01*
X137343278Y-74942517D01*
X137348444Y-74958414D01*
X137444951Y-75147820D01*
X137569890Y-75319786D01*
X137720213Y-75470109D01*
X137892179Y-75595048D01*
X137892181Y-75595049D01*
X137892184Y-75595051D01*
X138081588Y-75691557D01*
X138283757Y-75757246D01*
X138493713Y-75790500D01*
X138493714Y-75790500D01*
X138706286Y-75790500D01*
X138706287Y-75790500D01*
X138916243Y-75757246D01*
X139118412Y-75691557D01*
X139307816Y-75595051D01*
X139416287Y-75516243D01*
X139479786Y-75470109D01*
X139479788Y-75470106D01*
X139479792Y-75470104D01*
X139630104Y-75319792D01*
X139630106Y-75319788D01*
X139630109Y-75319786D01*
X139755048Y-75147820D01*
X139755049Y-75147819D01*
X139755051Y-75147816D01*
X139851557Y-74958412D01*
X139917246Y-74756243D01*
X139950500Y-74546287D01*
X139950500Y-74333713D01*
X139917246Y-74123757D01*
X139851557Y-73921588D01*
X139755051Y-73732184D01*
X139755049Y-73732181D01*
X139755048Y-73732179D01*
X139630109Y-73560213D01*
X139479786Y-73409890D01*
X139307820Y-73284951D01*
X139307115Y-73284591D01*
X139299054Y-73280485D01*
X139248259Y-73232512D01*
X139231463Y-73164692D01*
X139253999Y-73098556D01*
X139299054Y-73059515D01*
X139307816Y-73055051D01*
X139329789Y-73039086D01*
X139479786Y-72930109D01*
X139479788Y-72930106D01*
X139479792Y-72930104D01*
X139630104Y-72779792D01*
X139630106Y-72779788D01*
X139630109Y-72779786D01*
X139755048Y-72607820D01*
X139755047Y-72607820D01*
X139755051Y-72607816D01*
X139851557Y-72418412D01*
X139917246Y-72216243D01*
X139950500Y-72006287D01*
X139950500Y-71793713D01*
X139917246Y-71583757D01*
X139851557Y-71381588D01*
X139755051Y-71192184D01*
X139755049Y-71192181D01*
X139755048Y-71192179D01*
X139630109Y-71020213D01*
X139479786Y-70869890D01*
X139307820Y-70744951D01*
X139307115Y-70744591D01*
X139299054Y-70740485D01*
X139248259Y-70692512D01*
X139231463Y-70624692D01*
X139253999Y-70558556D01*
X139299054Y-70519515D01*
X139307816Y-70515051D01*
X139404304Y-70444949D01*
X139479786Y-70390109D01*
X139479788Y-70390106D01*
X139479792Y-70390104D01*
X139630104Y-70239792D01*
X139630106Y-70239788D01*
X139630109Y-70239786D01*
X139755048Y-70067820D01*
X139755047Y-70067820D01*
X139755051Y-70067816D01*
X139851557Y-69878412D01*
X139917246Y-69676243D01*
X139950500Y-69466287D01*
X139950500Y-69253713D01*
X139917246Y-69043757D01*
X139851557Y-68841588D01*
X139755051Y-68652184D01*
X139755049Y-68652181D01*
X139755048Y-68652179D01*
X139630109Y-68480213D01*
X139516569Y-68366673D01*
X139483084Y-68305350D01*
X139488068Y-68235658D01*
X139529940Y-68179725D01*
X139560915Y-68162810D01*
X139692331Y-68113796D01*
X139807546Y-68027546D01*
X139893796Y-67912331D01*
X139944091Y-67777483D01*
X139950500Y-67717873D01*
X139950499Y-65922135D01*
X140849500Y-65922135D01*
X140849500Y-67717870D01*
X140849501Y-67717876D01*
X140855908Y-67777483D01*
X140906202Y-67912328D01*
X140906206Y-67912335D01*
X140992452Y-68027544D01*
X140992455Y-68027547D01*
X141107664Y-68113793D01*
X141107671Y-68113797D01*
X141239082Y-68162810D01*
X141295016Y-68204681D01*
X141319433Y-68270145D01*
X141304582Y-68338418D01*
X141283431Y-68366673D01*
X141169889Y-68480215D01*
X141044951Y-68652179D01*
X140948444Y-68841585D01*
X140882753Y-69043760D01*
X140849500Y-69253713D01*
X140849500Y-69466286D01*
X140872307Y-69610288D01*
X140882754Y-69676243D01*
X140945624Y-69869737D01*
X140948444Y-69878414D01*
X141044951Y-70067820D01*
X141169890Y-70239786D01*
X141320213Y-70390109D01*
X141492182Y-70515050D01*
X141500946Y-70519516D01*
X141551742Y-70567491D01*
X141568536Y-70635312D01*
X141545998Y-70701447D01*
X141500946Y-70740484D01*
X141492182Y-70744949D01*
X141320213Y-70869890D01*
X141169890Y-71020213D01*
X141044951Y-71192179D01*
X140948444Y-71381585D01*
X140882753Y-71583760D01*
X140849500Y-71793713D01*
X140849500Y-72006287D01*
X140882754Y-72216243D01*
X140922997Y-72340099D01*
X140948444Y-72418414D01*
X141044951Y-72607820D01*
X141169890Y-72779786D01*
X141320213Y-72930109D01*
X141492182Y-73055050D01*
X141500946Y-73059516D01*
X141551742Y-73107491D01*
X141568536Y-73175312D01*
X141545998Y-73241447D01*
X141500946Y-73280484D01*
X141492182Y-73284949D01*
X141320213Y-73409890D01*
X141169890Y-73560213D01*
X141044951Y-73732179D01*
X140948444Y-73921585D01*
X140882753Y-74123760D01*
X140849500Y-74333713D01*
X140849500Y-74546286D01*
X140881518Y-74748444D01*
X140882754Y-74756243D01*
X140943278Y-74942517D01*
X140948444Y-74958414D01*
X141044951Y-75147820D01*
X141169890Y-75319786D01*
X141320213Y-75470109D01*
X141492179Y-75595048D01*
X141492181Y-75595049D01*
X141492184Y-75595051D01*
X141681588Y-75691557D01*
X141883757Y-75757246D01*
X142093713Y-75790500D01*
X142093714Y-75790500D01*
X142306286Y-75790500D01*
X142306287Y-75790500D01*
X142516243Y-75757246D01*
X142718412Y-75691557D01*
X142907816Y-75595051D01*
X143016287Y-75516243D01*
X143079786Y-75470109D01*
X143079788Y-75470106D01*
X143079792Y-75470104D01*
X143230104Y-75319792D01*
X143230106Y-75319788D01*
X143230109Y-75319786D01*
X143284899Y-75244371D01*
X143355051Y-75147816D01*
X143382618Y-75093713D01*
X144409500Y-75093713D01*
X144409500Y-75306286D01*
X144437264Y-75481585D01*
X144442754Y-75516243D01*
X144499717Y-75691557D01*
X144508444Y-75718414D01*
X144604951Y-75907820D01*
X144729890Y-76079786D01*
X144880213Y-76230109D01*
X145052179Y-76355048D01*
X145052181Y-76355049D01*
X145052184Y-76355051D01*
X145241588Y-76451557D01*
X145443757Y-76517246D01*
X145653713Y-76550500D01*
X145653714Y-76550500D01*
X145866286Y-76550500D01*
X145866287Y-76550500D01*
X146076243Y-76517246D01*
X146278412Y-76451557D01*
X146467816Y-76355051D01*
X146554138Y-76292335D01*
X146639786Y-76230109D01*
X146639788Y-76230106D01*
X146639792Y-76230104D01*
X146790104Y-76079792D01*
X146790106Y-76079788D01*
X146790109Y-76079786D01*
X146915048Y-75907820D01*
X146915047Y-75907820D01*
X146915051Y-75907816D01*
X146919514Y-75899054D01*
X146967488Y-75848259D01*
X147035308Y-75831463D01*
X147101444Y-75853999D01*
X147140486Y-75899056D01*
X147144951Y-75907820D01*
X147269890Y-76079786D01*
X147420213Y-76230109D01*
X147592179Y-76355048D01*
X147592181Y-76355049D01*
X147592184Y-76355051D01*
X147781588Y-76451557D01*
X147983757Y-76517246D01*
X148193713Y-76550500D01*
X148193714Y-76550500D01*
X148406286Y-76550500D01*
X148406287Y-76550500D01*
X148616243Y-76517246D01*
X148818412Y-76451557D01*
X149007816Y-76355051D01*
X149094138Y-76292335D01*
X149179786Y-76230109D01*
X149179788Y-76230106D01*
X149179792Y-76230104D01*
X149330104Y-76079792D01*
X149330106Y-76079788D01*
X149330109Y-76079786D01*
X149455048Y-75907820D01*
X149455047Y-75907820D01*
X149455051Y-75907816D01*
X149459514Y-75899054D01*
X149507488Y-75848259D01*
X149575308Y-75831463D01*
X149641444Y-75853999D01*
X149680486Y-75899056D01*
X149684951Y-75907820D01*
X149809890Y-76079786D01*
X149960213Y-76230109D01*
X150132179Y-76355048D01*
X150132181Y-76355049D01*
X150132184Y-76355051D01*
X150321588Y-76451557D01*
X150523757Y-76517246D01*
X150733713Y-76550500D01*
X150733714Y-76550500D01*
X150946286Y-76550500D01*
X150946287Y-76550500D01*
X151156243Y-76517246D01*
X151358412Y-76451557D01*
X151547816Y-76355051D01*
X151634147Y-76292328D01*
X151719784Y-76230110D01*
X151719784Y-76230109D01*
X151719792Y-76230104D01*
X151833329Y-76116566D01*
X151894648Y-76083084D01*
X151964340Y-76088068D01*
X152020274Y-76129939D01*
X152037189Y-76160917D01*
X152086202Y-76292328D01*
X152086206Y-76292335D01*
X152172452Y-76407544D01*
X152172455Y-76407547D01*
X152287664Y-76493793D01*
X152287671Y-76493797D01*
X152422517Y-76544091D01*
X152422516Y-76544091D01*
X152429444Y-76544835D01*
X152482127Y-76550500D01*
X154277872Y-76550499D01*
X154337483Y-76544091D01*
X154472331Y-76493796D01*
X154587546Y-76407546D01*
X154673796Y-76292331D01*
X154724091Y-76157483D01*
X154730500Y-76097873D01*
X154730499Y-75002135D01*
X159049500Y-75002135D01*
X159049500Y-76797870D01*
X159049501Y-76797876D01*
X159055908Y-76857483D01*
X159106202Y-76992328D01*
X159106206Y-76992335D01*
X159192452Y-77107544D01*
X159192455Y-77107547D01*
X159307664Y-77193793D01*
X159307671Y-77193797D01*
X159442517Y-77244091D01*
X159442516Y-77244091D01*
X159449444Y-77244835D01*
X159502127Y-77250500D01*
X161297872Y-77250499D01*
X161357483Y-77244091D01*
X161492331Y-77193796D01*
X161607546Y-77107546D01*
X161693796Y-76992331D01*
X161744091Y-76857483D01*
X161750500Y-76797873D01*
X161750499Y-75002128D01*
X161744091Y-74942517D01*
X161731094Y-74907671D01*
X161693797Y-74807671D01*
X161693793Y-74807664D01*
X161607547Y-74692455D01*
X161607544Y-74692452D01*
X161492335Y-74606206D01*
X161492328Y-74606202D01*
X161357482Y-74555908D01*
X161357483Y-74555908D01*
X161297883Y-74549501D01*
X161297881Y-74549500D01*
X161297873Y-74549500D01*
X161297864Y-74549500D01*
X159502129Y-74549500D01*
X159502123Y-74549501D01*
X159442516Y-74555908D01*
X159307671Y-74606202D01*
X159307664Y-74606206D01*
X159192455Y-74692452D01*
X159192452Y-74692455D01*
X159106206Y-74807664D01*
X159106202Y-74807671D01*
X159055908Y-74942517D01*
X159052965Y-74969896D01*
X159049501Y-75002123D01*
X159049500Y-75002135D01*
X154730499Y-75002135D01*
X154730499Y-74302128D01*
X154724091Y-74242517D01*
X154722810Y-74239083D01*
X154673797Y-74107671D01*
X154673793Y-74107664D01*
X154587547Y-73992455D01*
X154587544Y-73992452D01*
X154472335Y-73906206D01*
X154472328Y-73906202D01*
X154337482Y-73855908D01*
X154337483Y-73855908D01*
X154277883Y-73849501D01*
X154277881Y-73849500D01*
X154277873Y-73849500D01*
X154277864Y-73849500D01*
X152482129Y-73849500D01*
X152482123Y-73849501D01*
X152422516Y-73855908D01*
X152287671Y-73906202D01*
X152287664Y-73906206D01*
X152172455Y-73992452D01*
X152172452Y-73992455D01*
X152086206Y-74107664D01*
X152086203Y-74107669D01*
X152037189Y-74239083D01*
X151995317Y-74295016D01*
X151929853Y-74319433D01*
X151861580Y-74304581D01*
X151833326Y-74283430D01*
X151719786Y-74169890D01*
X151547820Y-74044951D01*
X151358414Y-73948444D01*
X151358413Y-73948443D01*
X151358412Y-73948443D01*
X151156243Y-73882754D01*
X151156241Y-73882753D01*
X151156240Y-73882753D01*
X150994957Y-73857208D01*
X150946287Y-73849500D01*
X150733713Y-73849500D01*
X150685042Y-73857208D01*
X150523760Y-73882753D01*
X150321585Y-73948444D01*
X150132179Y-74044951D01*
X149960213Y-74169890D01*
X149809890Y-74320213D01*
X149684949Y-74492182D01*
X149680484Y-74500946D01*
X149632509Y-74551742D01*
X149564688Y-74568536D01*
X149498553Y-74545998D01*
X149459516Y-74500946D01*
X149455050Y-74492182D01*
X149330109Y-74320213D01*
X149179786Y-74169890D01*
X149007820Y-74044951D01*
X148818414Y-73948444D01*
X148818413Y-73948443D01*
X148818412Y-73948443D01*
X148616243Y-73882754D01*
X148616241Y-73882753D01*
X148616240Y-73882753D01*
X148454957Y-73857208D01*
X148406287Y-73849500D01*
X148193713Y-73849500D01*
X148145042Y-73857208D01*
X147983760Y-73882753D01*
X147781585Y-73948444D01*
X147592179Y-74044951D01*
X147420213Y-74169890D01*
X147269890Y-74320213D01*
X147144949Y-74492182D01*
X147140484Y-74500946D01*
X147092509Y-74551742D01*
X147024688Y-74568536D01*
X146958553Y-74545998D01*
X146919516Y-74500946D01*
X146915050Y-74492182D01*
X146790109Y-74320213D01*
X146639786Y-74169890D01*
X146467820Y-74044951D01*
X146278414Y-73948444D01*
X146278413Y-73948443D01*
X146278412Y-73948443D01*
X146076243Y-73882754D01*
X146076241Y-73882753D01*
X146076240Y-73882753D01*
X145914957Y-73857208D01*
X145866287Y-73849500D01*
X145653713Y-73849500D01*
X145605042Y-73857208D01*
X145443760Y-73882753D01*
X145241585Y-73948444D01*
X145052179Y-74044951D01*
X144880213Y-74169890D01*
X144729890Y-74320213D01*
X144604951Y-74492179D01*
X144508444Y-74681585D01*
X144442753Y-74883760D01*
X144409500Y-75093713D01*
X143382618Y-75093713D01*
X143451557Y-74958412D01*
X143517246Y-74756243D01*
X143550500Y-74546287D01*
X143550500Y-74333713D01*
X143517246Y-74123757D01*
X143451557Y-73921588D01*
X143355051Y-73732184D01*
X143355049Y-73732181D01*
X143355048Y-73732179D01*
X143230109Y-73560213D01*
X143079786Y-73409890D01*
X142907820Y-73284951D01*
X142907115Y-73284591D01*
X142899054Y-73280485D01*
X142848259Y-73232512D01*
X142831463Y-73164692D01*
X142853999Y-73098556D01*
X142899054Y-73059515D01*
X142907816Y-73055051D01*
X142929789Y-73039086D01*
X143079786Y-72930109D01*
X143079788Y-72930106D01*
X143079792Y-72930104D01*
X143230104Y-72779792D01*
X143230106Y-72779788D01*
X143230109Y-72779786D01*
X143355048Y-72607820D01*
X143355047Y-72607820D01*
X143355051Y-72607816D01*
X143451557Y-72418412D01*
X143517246Y-72216243D01*
X143550500Y-72006287D01*
X143550500Y-71793713D01*
X143517246Y-71583757D01*
X143487989Y-71493713D01*
X144409500Y-71493713D01*
X144409500Y-71706287D01*
X144442754Y-71916243D01*
X144472011Y-72006287D01*
X144508444Y-72118414D01*
X144604951Y-72307820D01*
X144729890Y-72479786D01*
X144880213Y-72630109D01*
X145052179Y-72755048D01*
X145052181Y-72755049D01*
X145052184Y-72755051D01*
X145241588Y-72851557D01*
X145443757Y-72917246D01*
X145653713Y-72950500D01*
X145653714Y-72950500D01*
X145866286Y-72950500D01*
X145866287Y-72950500D01*
X146076243Y-72917246D01*
X146278412Y-72851557D01*
X146467816Y-72755051D01*
X146489789Y-72739086D01*
X146639786Y-72630109D01*
X146639788Y-72630106D01*
X146639792Y-72630104D01*
X146790104Y-72479792D01*
X146790106Y-72479788D01*
X146790109Y-72479786D01*
X146915048Y-72307820D01*
X146915047Y-72307820D01*
X146915051Y-72307816D01*
X146919514Y-72299054D01*
X146967488Y-72248259D01*
X147035308Y-72231463D01*
X147101444Y-72253999D01*
X147140486Y-72299056D01*
X147144951Y-72307820D01*
X147269890Y-72479786D01*
X147420213Y-72630109D01*
X147592179Y-72755048D01*
X147592181Y-72755049D01*
X147592184Y-72755051D01*
X147781588Y-72851557D01*
X147983757Y-72917246D01*
X148193713Y-72950500D01*
X148193714Y-72950500D01*
X148406286Y-72950500D01*
X148406287Y-72950500D01*
X148616243Y-72917246D01*
X148818412Y-72851557D01*
X149007816Y-72755051D01*
X149029789Y-72739086D01*
X149179786Y-72630109D01*
X149179788Y-72630106D01*
X149179792Y-72630104D01*
X149330104Y-72479792D01*
X149330106Y-72479788D01*
X149330109Y-72479786D01*
X149455048Y-72307820D01*
X149455047Y-72307820D01*
X149455051Y-72307816D01*
X149459514Y-72299054D01*
X149507488Y-72248259D01*
X149575308Y-72231463D01*
X149641444Y-72253999D01*
X149680486Y-72299056D01*
X149684951Y-72307820D01*
X149809890Y-72479786D01*
X149960213Y-72630109D01*
X150132179Y-72755048D01*
X150132181Y-72755049D01*
X150132184Y-72755051D01*
X150321588Y-72851557D01*
X150523757Y-72917246D01*
X150733713Y-72950500D01*
X150733714Y-72950500D01*
X150946286Y-72950500D01*
X150946287Y-72950500D01*
X151156243Y-72917246D01*
X151358412Y-72851557D01*
X151547816Y-72755051D01*
X151605141Y-72713402D01*
X151719784Y-72630110D01*
X151719784Y-72630109D01*
X151719792Y-72630104D01*
X151833329Y-72516566D01*
X151894648Y-72483084D01*
X151964340Y-72488068D01*
X152020274Y-72529939D01*
X152037189Y-72560917D01*
X152086202Y-72692328D01*
X152086206Y-72692335D01*
X152172452Y-72807544D01*
X152172455Y-72807547D01*
X152287664Y-72893793D01*
X152287671Y-72893797D01*
X152422517Y-72944091D01*
X152422516Y-72944091D01*
X152429444Y-72944835D01*
X152482127Y-72950500D01*
X154277872Y-72950499D01*
X154337483Y-72944091D01*
X154472331Y-72893796D01*
X154587546Y-72807546D01*
X154673796Y-72692331D01*
X154724091Y-72557483D01*
X154730500Y-72497873D01*
X154730499Y-71586446D01*
X154730499Y-70702129D01*
X154730498Y-70702123D01*
X154730425Y-70701447D01*
X154724091Y-70642517D01*
X154722810Y-70639083D01*
X154673797Y-70507671D01*
X154673793Y-70507664D01*
X154587547Y-70392455D01*
X154587544Y-70392452D01*
X154472335Y-70306206D01*
X154472328Y-70306202D01*
X154337482Y-70255908D01*
X154337483Y-70255908D01*
X154277883Y-70249501D01*
X154277881Y-70249500D01*
X154277873Y-70249500D01*
X154277864Y-70249500D01*
X152482129Y-70249500D01*
X152482123Y-70249501D01*
X152422516Y-70255908D01*
X152287671Y-70306202D01*
X152287664Y-70306206D01*
X152172455Y-70392452D01*
X152172452Y-70392455D01*
X152086206Y-70507664D01*
X152086203Y-70507669D01*
X152037189Y-70639083D01*
X151995317Y-70695016D01*
X151929853Y-70719433D01*
X151861580Y-70704581D01*
X151833326Y-70683430D01*
X151719786Y-70569890D01*
X151547820Y-70444951D01*
X151358414Y-70348444D01*
X151358413Y-70348443D01*
X151358412Y-70348443D01*
X151156243Y-70282754D01*
X151156241Y-70282753D01*
X151156240Y-70282753D01*
X150994957Y-70257208D01*
X150946287Y-70249500D01*
X150733713Y-70249500D01*
X150685042Y-70257208D01*
X150523760Y-70282753D01*
X150321585Y-70348444D01*
X150132179Y-70444951D01*
X149960213Y-70569890D01*
X149809890Y-70720213D01*
X149684949Y-70892182D01*
X149680484Y-70900946D01*
X149632509Y-70951742D01*
X149564688Y-70968536D01*
X149498553Y-70945998D01*
X149459516Y-70900946D01*
X149455050Y-70892182D01*
X149330109Y-70720213D01*
X149179786Y-70569890D01*
X149007820Y-70444951D01*
X148818414Y-70348444D01*
X148818413Y-70348443D01*
X148818412Y-70348443D01*
X148616243Y-70282754D01*
X148616241Y-70282753D01*
X148616240Y-70282753D01*
X148454957Y-70257208D01*
X148406287Y-70249500D01*
X148193713Y-70249500D01*
X148145042Y-70257208D01*
X147983760Y-70282753D01*
X147781585Y-70348444D01*
X147592179Y-70444951D01*
X147420213Y-70569890D01*
X147269890Y-70720213D01*
X147144949Y-70892182D01*
X147140484Y-70900946D01*
X147092509Y-70951742D01*
X147024688Y-70968536D01*
X146958553Y-70945998D01*
X146919516Y-70900946D01*
X146915050Y-70892182D01*
X146790109Y-70720213D01*
X146639786Y-70569890D01*
X146467820Y-70444951D01*
X146278414Y-70348444D01*
X146278413Y-70348443D01*
X146278412Y-70348443D01*
X146076243Y-70282754D01*
X146076241Y-70282753D01*
X146076240Y-70282753D01*
X145914957Y-70257208D01*
X145866287Y-70249500D01*
X145653713Y-70249500D01*
X145605042Y-70257208D01*
X145443760Y-70282753D01*
X145241585Y-70348444D01*
X145052179Y-70444951D01*
X144880213Y-70569890D01*
X144729890Y-70720213D01*
X144604951Y-70892179D01*
X144508444Y-71081585D01*
X144442753Y-71283760D01*
X144420893Y-71421782D01*
X144409500Y-71493713D01*
X143487989Y-71493713D01*
X143451557Y-71381588D01*
X143355051Y-71192184D01*
X143355049Y-71192181D01*
X143355048Y-71192179D01*
X143230109Y-71020213D01*
X143079786Y-70869890D01*
X142907820Y-70744951D01*
X142907115Y-70744591D01*
X142899054Y-70740485D01*
X142848259Y-70692512D01*
X142831463Y-70624692D01*
X142853999Y-70558556D01*
X142899054Y-70519515D01*
X142907816Y-70515051D01*
X143004304Y-70444949D01*
X143079786Y-70390109D01*
X143079788Y-70390106D01*
X143079792Y-70390104D01*
X143230104Y-70239792D01*
X143230106Y-70239788D01*
X143230109Y-70239786D01*
X143355048Y-70067820D01*
X143355047Y-70067820D01*
X143355051Y-70067816D01*
X143451557Y-69878412D01*
X143517246Y-69676243D01*
X143550500Y-69466287D01*
X143550500Y-69253713D01*
X143517246Y-69043757D01*
X143451557Y-68841588D01*
X143355051Y-68652184D01*
X143355049Y-68652181D01*
X143355048Y-68652179D01*
X143230109Y-68480213D01*
X143116569Y-68366673D01*
X143083084Y-68305350D01*
X143088068Y-68235658D01*
X143129940Y-68179725D01*
X143160915Y-68162810D01*
X143292331Y-68113796D01*
X143407546Y-68027546D01*
X143493796Y-67912331D01*
X143500740Y-67893713D01*
X144409500Y-67893713D01*
X144409500Y-68106287D01*
X144411821Y-68120943D01*
X144441028Y-68305350D01*
X144442754Y-68316243D01*
X144496031Y-68480213D01*
X144508444Y-68518414D01*
X144604951Y-68707820D01*
X144729890Y-68879786D01*
X144880213Y-69030109D01*
X145052179Y-69155048D01*
X145052181Y-69155049D01*
X145052184Y-69155051D01*
X145241588Y-69251557D01*
X145443757Y-69317246D01*
X145653713Y-69350500D01*
X145653714Y-69350500D01*
X145866286Y-69350500D01*
X145866287Y-69350500D01*
X146076243Y-69317246D01*
X146278412Y-69251557D01*
X146467816Y-69155051D01*
X146521235Y-69116240D01*
X146639786Y-69030109D01*
X146639788Y-69030106D01*
X146639792Y-69030104D01*
X146790104Y-68879792D01*
X146790106Y-68879788D01*
X146790109Y-68879786D01*
X146915048Y-68707820D01*
X146915047Y-68707820D01*
X146915051Y-68707816D01*
X146919514Y-68699054D01*
X146967488Y-68648259D01*
X147035308Y-68631463D01*
X147101444Y-68653999D01*
X147140486Y-68699056D01*
X147144951Y-68707820D01*
X147269890Y-68879786D01*
X147420213Y-69030109D01*
X147592179Y-69155048D01*
X147592181Y-69155049D01*
X147592184Y-69155051D01*
X147781588Y-69251557D01*
X147983757Y-69317246D01*
X148193713Y-69350500D01*
X148193714Y-69350500D01*
X148406286Y-69350500D01*
X148406287Y-69350500D01*
X148616243Y-69317246D01*
X148818412Y-69251557D01*
X149007816Y-69155051D01*
X149105940Y-69083760D01*
X149179784Y-69030110D01*
X149179784Y-69030109D01*
X149179792Y-69030104D01*
X149293329Y-68916566D01*
X149354648Y-68883084D01*
X149424340Y-68888068D01*
X149480274Y-68929939D01*
X149497189Y-68960917D01*
X149546202Y-69092328D01*
X149546206Y-69092335D01*
X149632452Y-69207544D01*
X149632455Y-69207547D01*
X149747664Y-69293793D01*
X149747671Y-69293797D01*
X149882517Y-69344091D01*
X149882516Y-69344091D01*
X149889444Y-69344835D01*
X149942127Y-69350500D01*
X151737872Y-69350499D01*
X151797483Y-69344091D01*
X151932331Y-69293796D01*
X152047546Y-69207546D01*
X152133796Y-69092331D01*
X152184091Y-68957483D01*
X152190500Y-68897873D01*
X152190499Y-67102128D01*
X152184091Y-67042517D01*
X152182810Y-67039083D01*
X152133797Y-66907671D01*
X152133793Y-66907664D01*
X152047547Y-66792455D01*
X152047544Y-66792452D01*
X151932335Y-66706206D01*
X151932328Y-66706202D01*
X151797482Y-66655908D01*
X151797483Y-66655908D01*
X151737883Y-66649501D01*
X151737881Y-66649500D01*
X151737873Y-66649500D01*
X151737864Y-66649500D01*
X149942129Y-66649500D01*
X149942123Y-66649501D01*
X149882516Y-66655908D01*
X149747671Y-66706202D01*
X149747664Y-66706206D01*
X149632455Y-66792452D01*
X149632452Y-66792455D01*
X149546206Y-66907664D01*
X149546203Y-66907669D01*
X149497189Y-67039083D01*
X149455317Y-67095016D01*
X149389853Y-67119433D01*
X149321580Y-67104581D01*
X149293326Y-67083430D01*
X149179786Y-66969890D01*
X149007820Y-66844951D01*
X148818414Y-66748444D01*
X148818413Y-66748443D01*
X148818412Y-66748443D01*
X148616243Y-66682754D01*
X148616241Y-66682753D01*
X148616240Y-66682753D01*
X148454957Y-66657208D01*
X148406287Y-66649500D01*
X148193713Y-66649500D01*
X148145042Y-66657208D01*
X147983760Y-66682753D01*
X147781585Y-66748444D01*
X147592179Y-66844951D01*
X147420213Y-66969890D01*
X147269890Y-67120213D01*
X147144949Y-67292182D01*
X147140484Y-67300946D01*
X147092509Y-67351742D01*
X147024688Y-67368536D01*
X146958553Y-67345998D01*
X146919516Y-67300946D01*
X146915050Y-67292182D01*
X146790109Y-67120213D01*
X146639786Y-66969890D01*
X146467820Y-66844951D01*
X146278414Y-66748444D01*
X146278413Y-66748443D01*
X146278412Y-66748443D01*
X146076243Y-66682754D01*
X146076241Y-66682753D01*
X146076240Y-66682753D01*
X145914957Y-66657208D01*
X145866287Y-66649500D01*
X145653713Y-66649500D01*
X145605042Y-66657208D01*
X145443760Y-66682753D01*
X145241585Y-66748444D01*
X145052179Y-66844951D01*
X144880213Y-66969890D01*
X144729890Y-67120213D01*
X144604951Y-67292179D01*
X144508444Y-67481585D01*
X144442753Y-67683760D01*
X144427909Y-67777482D01*
X144409500Y-67893713D01*
X143500740Y-67893713D01*
X143518720Y-67845508D01*
X143518720Y-67845507D01*
X143544090Y-67777485D01*
X143544091Y-67777483D01*
X143546199Y-67757872D01*
X143550500Y-67717873D01*
X143550499Y-65962135D01*
X159049500Y-65962135D01*
X159049500Y-67757870D01*
X159049501Y-67757876D01*
X159055908Y-67817483D01*
X159106202Y-67952328D01*
X159106206Y-67952335D01*
X159192452Y-68067544D01*
X159192455Y-68067547D01*
X159307664Y-68153793D01*
X159307671Y-68153797D01*
X159439082Y-68202810D01*
X159495016Y-68244681D01*
X159519433Y-68310145D01*
X159504582Y-68378418D01*
X159483431Y-68406673D01*
X159369889Y-68520215D01*
X159244951Y-68692179D01*
X159148444Y-68881585D01*
X159082753Y-69083760D01*
X159049500Y-69293713D01*
X159049500Y-69506286D01*
X159076418Y-69676243D01*
X159082754Y-69716243D01*
X159132627Y-69869737D01*
X159148444Y-69918414D01*
X159244951Y-70107820D01*
X159369890Y-70279786D01*
X159520213Y-70430109D01*
X159692179Y-70555048D01*
X159692181Y-70555049D01*
X159692184Y-70555051D01*
X159701493Y-70559794D01*
X159752290Y-70607766D01*
X159769087Y-70675587D01*
X159746552Y-70741722D01*
X159701505Y-70780760D01*
X159692446Y-70785376D01*
X159692440Y-70785380D01*
X159638282Y-70824727D01*
X159638282Y-70824728D01*
X160270591Y-71457037D01*
X160207007Y-71474075D01*
X160092993Y-71539901D01*
X159999901Y-71632993D01*
X159934075Y-71747007D01*
X159917037Y-71810591D01*
X159284728Y-71178282D01*
X159284727Y-71178282D01*
X159245380Y-71232439D01*
X159148904Y-71421782D01*
X159083242Y-71623869D01*
X159083242Y-71623872D01*
X159050000Y-71833753D01*
X159050000Y-72046246D01*
X159083242Y-72256127D01*
X159083242Y-72256130D01*
X159148904Y-72458217D01*
X159245375Y-72647550D01*
X159284728Y-72701716D01*
X159917037Y-72069408D01*
X159934075Y-72132993D01*
X159999901Y-72247007D01*
X160092993Y-72340099D01*
X160207007Y-72405925D01*
X160270590Y-72422962D01*
X159638282Y-73055269D01*
X159638282Y-73055270D01*
X159692449Y-73094624D01*
X159881782Y-73191095D01*
X160083870Y-73256757D01*
X160293754Y-73290000D01*
X160506246Y-73290000D01*
X160716127Y-73256757D01*
X160716130Y-73256757D01*
X160918217Y-73191095D01*
X161107554Y-73094622D01*
X161161716Y-73055270D01*
X161161717Y-73055270D01*
X160529408Y-72422962D01*
X160592993Y-72405925D01*
X160707007Y-72340099D01*
X160800099Y-72247007D01*
X160865925Y-72132993D01*
X160882962Y-72069409D01*
X161515270Y-72701717D01*
X161515270Y-72701716D01*
X161554622Y-72647554D01*
X161651095Y-72458217D01*
X161716757Y-72256130D01*
X161716757Y-72256127D01*
X161750000Y-72046246D01*
X161750000Y-71833753D01*
X161716757Y-71623872D01*
X161716757Y-71623869D01*
X161651095Y-71421782D01*
X161554624Y-71232449D01*
X161515270Y-71178282D01*
X161515269Y-71178282D01*
X160882962Y-71810590D01*
X160865925Y-71747007D01*
X160800099Y-71632993D01*
X160707007Y-71539901D01*
X160592993Y-71474075D01*
X160529409Y-71457037D01*
X161161716Y-70824728D01*
X161107547Y-70785373D01*
X161107547Y-70785372D01*
X161098500Y-70780763D01*
X161047706Y-70732788D01*
X161030912Y-70664966D01*
X161053451Y-70598832D01*
X161098508Y-70559793D01*
X161107816Y-70555051D01*
X161259357Y-70444951D01*
X161279786Y-70430109D01*
X161279788Y-70430106D01*
X161279792Y-70430104D01*
X161430104Y-70279792D01*
X161430106Y-70279788D01*
X161430109Y-70279786D01*
X161555048Y-70107820D01*
X161555047Y-70107820D01*
X161555051Y-70107816D01*
X161651557Y-69918412D01*
X161717246Y-69716243D01*
X161750500Y-69506287D01*
X161750500Y-69293713D01*
X161717246Y-69083757D01*
X161651557Y-68881588D01*
X161555051Y-68692184D01*
X161555049Y-68692181D01*
X161555048Y-68692179D01*
X161430109Y-68520213D01*
X161316569Y-68406673D01*
X161283084Y-68345350D01*
X161288068Y-68275658D01*
X161329940Y-68219725D01*
X161360915Y-68202810D01*
X161492331Y-68153796D01*
X161607546Y-68067546D01*
X161693796Y-67952331D01*
X161744091Y-67817483D01*
X161750500Y-67757873D01*
X161750499Y-65962128D01*
X161744091Y-65902517D01*
X161693796Y-65767669D01*
X161693795Y-65767668D01*
X161693793Y-65767664D01*
X161607547Y-65652455D01*
X161607544Y-65652452D01*
X161492335Y-65566206D01*
X161492328Y-65566202D01*
X161357482Y-65515908D01*
X161357483Y-65515908D01*
X161297883Y-65509501D01*
X161297881Y-65509500D01*
X161297873Y-65509500D01*
X161297864Y-65509500D01*
X159502129Y-65509500D01*
X159502123Y-65509501D01*
X159442516Y-65515908D01*
X159307671Y-65566202D01*
X159307664Y-65566206D01*
X159192455Y-65652452D01*
X159192452Y-65652455D01*
X159106206Y-65767664D01*
X159106202Y-65767671D01*
X159055908Y-65902517D01*
X159049501Y-65962116D01*
X159049501Y-65962123D01*
X159049500Y-65962135D01*
X143550499Y-65962135D01*
X143550499Y-65922128D01*
X143544091Y-65862517D01*
X143493796Y-65727669D01*
X143493795Y-65727668D01*
X143493793Y-65727664D01*
X143407547Y-65612455D01*
X143407544Y-65612452D01*
X143292335Y-65526206D01*
X143292328Y-65526202D01*
X143157482Y-65475908D01*
X143157483Y-65475908D01*
X143097883Y-65469501D01*
X143097881Y-65469500D01*
X143097873Y-65469500D01*
X143097864Y-65469500D01*
X141302129Y-65469500D01*
X141302123Y-65469501D01*
X141242516Y-65475908D01*
X141107671Y-65526202D01*
X141107664Y-65526206D01*
X140992455Y-65612452D01*
X140992452Y-65612455D01*
X140906206Y-65727664D01*
X140906202Y-65727671D01*
X140855908Y-65862517D01*
X140849501Y-65922116D01*
X140849501Y-65922123D01*
X140849500Y-65922135D01*
X139950499Y-65922135D01*
X139950499Y-65922128D01*
X139944091Y-65862517D01*
X139893796Y-65727669D01*
X139893795Y-65727668D01*
X139893793Y-65727664D01*
X139807547Y-65612455D01*
X139807544Y-65612452D01*
X139692335Y-65526206D01*
X139692328Y-65526202D01*
X139557482Y-65475908D01*
X139557483Y-65475908D01*
X139497883Y-65469501D01*
X139497881Y-65469500D01*
X139497873Y-65469500D01*
X139497864Y-65469500D01*
X137702129Y-65469500D01*
X137702123Y-65469501D01*
X137642516Y-65475908D01*
X137507671Y-65526202D01*
X137507664Y-65526206D01*
X137392455Y-65612452D01*
X137392452Y-65612455D01*
X137306206Y-65727664D01*
X137306202Y-65727671D01*
X137255908Y-65862517D01*
X137249501Y-65922116D01*
X137249501Y-65922123D01*
X137249500Y-65922135D01*
X136350499Y-65922135D01*
X136350499Y-65922128D01*
X136344091Y-65862517D01*
X136293796Y-65727669D01*
X136293795Y-65727668D01*
X136293793Y-65727664D01*
X136207547Y-65612455D01*
X136207544Y-65612452D01*
X136092335Y-65526206D01*
X136092328Y-65526202D01*
X135957482Y-65475908D01*
X135957483Y-65475908D01*
X135897883Y-65469501D01*
X135897881Y-65469500D01*
X135897873Y-65469500D01*
X135897865Y-65469500D01*
X134179096Y-65469500D01*
X134157849Y-65463261D01*
X134135760Y-65461681D01*
X134124977Y-65453608D01*
X134112057Y-65449815D01*
X134097557Y-65433081D01*
X134079827Y-65419808D01*
X134075120Y-65407187D01*
X134066302Y-65397011D01*
X134063150Y-65375092D01*
X134055412Y-65354343D01*
X134058274Y-65341184D01*
X134056358Y-65327853D01*
X134065557Y-65307708D01*
X134070265Y-65286071D01*
X134083532Y-65268348D01*
X134085383Y-65264297D01*
X134091403Y-65257831D01*
X134112418Y-65236817D01*
X134173742Y-65203333D01*
X134200097Y-65200500D01*
X145520234Y-65200500D01*
X145587273Y-65220185D01*
X145589125Y-65221398D01*
X145720814Y-65309390D01*
X145720827Y-65309397D01*
X145797569Y-65341184D01*
X145866503Y-65369737D01*
X146003618Y-65397011D01*
X146021153Y-65400499D01*
X146021156Y-65400500D01*
X146021158Y-65400500D01*
X146178844Y-65400500D01*
X146178845Y-65400499D01*
X146333497Y-65369737D01*
X146479179Y-65309394D01*
X146610289Y-65221789D01*
X146721789Y-65110289D01*
X146809394Y-64979179D01*
X146869737Y-64833497D01*
X146900500Y-64678842D01*
X146900500Y-64521158D01*
X146900500Y-64521155D01*
X146900499Y-64521153D01*
X146869738Y-64366510D01*
X146869737Y-64366503D01*
X146813728Y-64231284D01*
X146809397Y-64220827D01*
X146809390Y-64220814D01*
X146721789Y-64089711D01*
X146721786Y-64089707D01*
X146610292Y-63978213D01*
X146610288Y-63978210D01*
X146479185Y-63890609D01*
X146479172Y-63890602D01*
X146333501Y-63830264D01*
X146333489Y-63830261D01*
X146178845Y-63799500D01*
X146178842Y-63799500D01*
X146021158Y-63799500D01*
X146021155Y-63799500D01*
X145866510Y-63830261D01*
X145866498Y-63830264D01*
X145720827Y-63890602D01*
X145720814Y-63890609D01*
X145589125Y-63978602D01*
X145522447Y-63999480D01*
X145520234Y-63999500D01*
X133979057Y-63999500D01*
X133820943Y-63999500D01*
X133668215Y-64040423D01*
X133668214Y-64040423D01*
X133668212Y-64040424D01*
X133668209Y-64040425D01*
X133618096Y-64069359D01*
X133618095Y-64069360D01*
X133587069Y-64087273D01*
X133531285Y-64119479D01*
X133531282Y-64119481D01*
X131419481Y-66231282D01*
X131419479Y-66231285D01*
X131369361Y-66318094D01*
X131369359Y-66318096D01*
X131340425Y-66368209D01*
X131340424Y-66368210D01*
X131340423Y-66368215D01*
X131299499Y-66520943D01*
X131299499Y-66520945D01*
X131299499Y-66689046D01*
X131299500Y-66689059D01*
X131299500Y-68182152D01*
X131279815Y-68249191D01*
X131227011Y-68294946D01*
X131199692Y-68303769D01*
X131066508Y-68330261D01*
X131066498Y-68330264D01*
X130920827Y-68390602D01*
X130920814Y-68390609D01*
X130789711Y-68478210D01*
X130789707Y-68478213D01*
X130678213Y-68589707D01*
X130678210Y-68589711D01*
X130590609Y-68720814D01*
X130590602Y-68720827D01*
X130530264Y-68866498D01*
X130530261Y-68866510D01*
X130499500Y-69021153D01*
X126600500Y-69021153D01*
X126600500Y-61621155D01*
X126600499Y-61621153D01*
X126596465Y-61600872D01*
X126569737Y-61466503D01*
X126555784Y-61432817D01*
X126509397Y-61320827D01*
X126509390Y-61320814D01*
X126421789Y-61189711D01*
X126421786Y-61189707D01*
X126310292Y-61078213D01*
X126310288Y-61078210D01*
X126179185Y-60990609D01*
X126179172Y-60990602D01*
X126033501Y-60930264D01*
X126033489Y-60930261D01*
X125984031Y-60920423D01*
X125984030Y-60920423D01*
X125878844Y-60899500D01*
X125878842Y-60899500D01*
X125721158Y-60899500D01*
X125721155Y-60899500D01*
X125566510Y-60930261D01*
X125566498Y-60930264D01*
X125420827Y-60990602D01*
X125420814Y-60990609D01*
X125289711Y-61078210D01*
X125289707Y-61078213D01*
X125178213Y-61189707D01*
X125178210Y-61189711D01*
X125090609Y-61320814D01*
X125090602Y-61320827D01*
X125030264Y-61466498D01*
X125030261Y-61466510D01*
X124999500Y-61621153D01*
X124999500Y-61621158D01*
X124999500Y-73621158D01*
X124999500Y-73778843D01*
X124999500Y-73778845D01*
X124999499Y-73778845D01*
X125030261Y-73933491D01*
X125030264Y-73933501D01*
X125090602Y-74079172D01*
X125090609Y-74079185D01*
X125178210Y-74210288D01*
X125178213Y-74210292D01*
X128555742Y-77587819D01*
X128589227Y-77649142D01*
X128584243Y-77718834D01*
X128542371Y-77774767D01*
X128476907Y-77799184D01*
X128468061Y-77799500D01*
X113824500Y-77799500D01*
X113757461Y-77779815D01*
X113711706Y-77727011D01*
X113700500Y-77675500D01*
X113700500Y-76236004D01*
X113720185Y-76168965D01*
X113772989Y-76123210D01*
X113842147Y-76113266D01*
X113905703Y-76142291D01*
X113943477Y-76201069D01*
X113946973Y-76216606D01*
X113958966Y-76292331D01*
X113962754Y-76316243D01*
X114006720Y-76451557D01*
X114028444Y-76518414D01*
X114124951Y-76707820D01*
X114249890Y-76879786D01*
X114400213Y-77030109D01*
X114572179Y-77155048D01*
X114572181Y-77155049D01*
X114572184Y-77155051D01*
X114761588Y-77251557D01*
X114963757Y-77317246D01*
X115173713Y-77350500D01*
X115173714Y-77350500D01*
X115386286Y-77350500D01*
X115386287Y-77350500D01*
X115596243Y-77317246D01*
X115798412Y-77251557D01*
X115987816Y-77155051D01*
X116053200Y-77107547D01*
X116159786Y-77030109D01*
X116159788Y-77030106D01*
X116159792Y-77030104D01*
X116310104Y-76879792D01*
X116310106Y-76879788D01*
X116310109Y-76879786D01*
X116435048Y-76707820D01*
X116435047Y-76707820D01*
X116435051Y-76707816D01*
X116439514Y-76699054D01*
X116487488Y-76648259D01*
X116555308Y-76631463D01*
X116621444Y-76653999D01*
X116660486Y-76699056D01*
X116664951Y-76707820D01*
X116789890Y-76879786D01*
X116940213Y-77030109D01*
X117112179Y-77155048D01*
X117112181Y-77155049D01*
X117112184Y-77155051D01*
X117301588Y-77251557D01*
X117503757Y-77317246D01*
X117713713Y-77350500D01*
X117713714Y-77350500D01*
X117926286Y-77350500D01*
X117926287Y-77350500D01*
X118136243Y-77317246D01*
X118338412Y-77251557D01*
X118527816Y-77155051D01*
X118593200Y-77107547D01*
X118699786Y-77030109D01*
X118699788Y-77030106D01*
X118699792Y-77030104D01*
X118850104Y-76879792D01*
X118850106Y-76879788D01*
X118850109Y-76879786D01*
X118975048Y-76707820D01*
X118975047Y-76707820D01*
X118975051Y-76707816D01*
X118979514Y-76699054D01*
X119027488Y-76648259D01*
X119095308Y-76631463D01*
X119161444Y-76653999D01*
X119200486Y-76699056D01*
X119204951Y-76707820D01*
X119329890Y-76879786D01*
X119480213Y-77030109D01*
X119652179Y-77155048D01*
X119652181Y-77155049D01*
X119652184Y-77155051D01*
X119841588Y-77251557D01*
X120043757Y-77317246D01*
X120253713Y-77350500D01*
X120253714Y-77350500D01*
X120466286Y-77350500D01*
X120466287Y-77350500D01*
X120676243Y-77317246D01*
X120878412Y-77251557D01*
X121067816Y-77155051D01*
X121133200Y-77107547D01*
X121239784Y-77030110D01*
X121239784Y-77030109D01*
X121239792Y-77030104D01*
X121353329Y-76916566D01*
X121414648Y-76883084D01*
X121484340Y-76888068D01*
X121540274Y-76929939D01*
X121557189Y-76960917D01*
X121606202Y-77092328D01*
X121606206Y-77092335D01*
X121692452Y-77207544D01*
X121692455Y-77207547D01*
X121807664Y-77293793D01*
X121807671Y-77293797D01*
X121942517Y-77344091D01*
X121942516Y-77344091D01*
X121949444Y-77344835D01*
X122002127Y-77350500D01*
X123797872Y-77350499D01*
X123857483Y-77344091D01*
X123992331Y-77293796D01*
X124107546Y-77207546D01*
X124193796Y-77092331D01*
X124244091Y-76957483D01*
X124250500Y-76897873D01*
X124250499Y-75102128D01*
X124244091Y-75042517D01*
X124242810Y-75039083D01*
X124193797Y-74907671D01*
X124193793Y-74907664D01*
X124107547Y-74792455D01*
X124107544Y-74792452D01*
X123992335Y-74706206D01*
X123992328Y-74706202D01*
X123857482Y-74655908D01*
X123857483Y-74655908D01*
X123797883Y-74649501D01*
X123797881Y-74649500D01*
X123797873Y-74649500D01*
X123797864Y-74649500D01*
X122002129Y-74649500D01*
X122002123Y-74649501D01*
X121942516Y-74655908D01*
X121807671Y-74706202D01*
X121807664Y-74706206D01*
X121692455Y-74792452D01*
X121692452Y-74792455D01*
X121606206Y-74907664D01*
X121606203Y-74907669D01*
X121557189Y-75039083D01*
X121515317Y-75095016D01*
X121449853Y-75119433D01*
X121381580Y-75104581D01*
X121353326Y-75083430D01*
X121239786Y-74969890D01*
X121067820Y-74844951D01*
X120878414Y-74748444D01*
X120878413Y-74748443D01*
X120878412Y-74748443D01*
X120676243Y-74682754D01*
X120676241Y-74682753D01*
X120676240Y-74682753D01*
X120514957Y-74657208D01*
X120466287Y-74649500D01*
X120253713Y-74649500D01*
X120205042Y-74657208D01*
X120043760Y-74682753D01*
X119841585Y-74748444D01*
X119652179Y-74844951D01*
X119480213Y-74969890D01*
X119329890Y-75120213D01*
X119204949Y-75292182D01*
X119200484Y-75300946D01*
X119152509Y-75351742D01*
X119084688Y-75368536D01*
X119018553Y-75345998D01*
X118979516Y-75300946D01*
X118975050Y-75292182D01*
X118850109Y-75120213D01*
X118699786Y-74969890D01*
X118527820Y-74844951D01*
X118338414Y-74748444D01*
X118338413Y-74748443D01*
X118338412Y-74748443D01*
X118136243Y-74682754D01*
X118136241Y-74682753D01*
X118136240Y-74682753D01*
X117974957Y-74657208D01*
X117926287Y-74649500D01*
X117713713Y-74649500D01*
X117665042Y-74657208D01*
X117503760Y-74682753D01*
X117301585Y-74748444D01*
X117112179Y-74844951D01*
X116940213Y-74969890D01*
X116789890Y-75120213D01*
X116664949Y-75292182D01*
X116660484Y-75300946D01*
X116612509Y-75351742D01*
X116544688Y-75368536D01*
X116478553Y-75345998D01*
X116439516Y-75300946D01*
X116435050Y-75292182D01*
X116310109Y-75120213D01*
X116159786Y-74969890D01*
X115987820Y-74844951D01*
X115798414Y-74748444D01*
X115798413Y-74748443D01*
X115798412Y-74748443D01*
X115596243Y-74682754D01*
X115596241Y-74682753D01*
X115596240Y-74682753D01*
X115434957Y-74657208D01*
X115386287Y-74649500D01*
X115173713Y-74649500D01*
X115125042Y-74657208D01*
X114963760Y-74682753D01*
X114761585Y-74748444D01*
X114572179Y-74844951D01*
X114400213Y-74969890D01*
X114249890Y-75120213D01*
X114124951Y-75292179D01*
X114028444Y-75481585D01*
X113962753Y-75683760D01*
X113946973Y-75783393D01*
X113917044Y-75846528D01*
X113857732Y-75883459D01*
X113787870Y-75882461D01*
X113729637Y-75843851D01*
X113701523Y-75779888D01*
X113700500Y-75763995D01*
X113700500Y-65962135D01*
X117149500Y-65962135D01*
X117149500Y-67757870D01*
X117149501Y-67757876D01*
X117155908Y-67817483D01*
X117206202Y-67952328D01*
X117206206Y-67952335D01*
X117292452Y-68067544D01*
X117292455Y-68067547D01*
X117407664Y-68153793D01*
X117407671Y-68153797D01*
X117539082Y-68202810D01*
X117595016Y-68244681D01*
X117619433Y-68310145D01*
X117604582Y-68378418D01*
X117583431Y-68406673D01*
X117469889Y-68520215D01*
X117344951Y-68692179D01*
X117248444Y-68881585D01*
X117182753Y-69083760D01*
X117149500Y-69293713D01*
X117149500Y-69506286D01*
X117176418Y-69676243D01*
X117182754Y-69716243D01*
X117232627Y-69869737D01*
X117248444Y-69918414D01*
X117344951Y-70107820D01*
X117469890Y-70279786D01*
X117620213Y-70430109D01*
X117792182Y-70555050D01*
X117800946Y-70559516D01*
X117851742Y-70607491D01*
X117868536Y-70675312D01*
X117845998Y-70741447D01*
X117800946Y-70780484D01*
X117792182Y-70784949D01*
X117620213Y-70909890D01*
X117469890Y-71060213D01*
X117344951Y-71232179D01*
X117248444Y-71421585D01*
X117182753Y-71623760D01*
X117149500Y-71833713D01*
X117149500Y-72046286D01*
X117182735Y-72256127D01*
X117182754Y-72256243D01*
X117199512Y-72307820D01*
X117248444Y-72458414D01*
X117344951Y-72647820D01*
X117469890Y-72819786D01*
X117620213Y-72970109D01*
X117792179Y-73095048D01*
X117792181Y-73095049D01*
X117792184Y-73095051D01*
X117981588Y-73191557D01*
X118183757Y-73257246D01*
X118393713Y-73290500D01*
X118393714Y-73290500D01*
X118606286Y-73290500D01*
X118606287Y-73290500D01*
X118816243Y-73257246D01*
X119018412Y-73191557D01*
X119207816Y-73095051D01*
X119262876Y-73055048D01*
X119379786Y-72970109D01*
X119379788Y-72970106D01*
X119379792Y-72970104D01*
X119530104Y-72819792D01*
X119530106Y-72819788D01*
X119530109Y-72819786D01*
X119655048Y-72647820D01*
X119655047Y-72647820D01*
X119655051Y-72647816D01*
X119751557Y-72458412D01*
X119817246Y-72256243D01*
X119850500Y-72046287D01*
X119850500Y-71833713D01*
X119817246Y-71623757D01*
X119751557Y-71421588D01*
X119655051Y-71232184D01*
X119655049Y-71232181D01*
X119655048Y-71232179D01*
X119530109Y-71060213D01*
X119379786Y-70909890D01*
X119207820Y-70784951D01*
X119199600Y-70780763D01*
X119199054Y-70780485D01*
X119148259Y-70732512D01*
X119131463Y-70664692D01*
X119153999Y-70598556D01*
X119199054Y-70559515D01*
X119207816Y-70555051D01*
X119262876Y-70515048D01*
X119379786Y-70430109D01*
X119379788Y-70430106D01*
X119379792Y-70430104D01*
X119530104Y-70279792D01*
X119530106Y-70279788D01*
X119530109Y-70279786D01*
X119655048Y-70107820D01*
X119655047Y-70107820D01*
X119655051Y-70107816D01*
X119751557Y-69918412D01*
X119817246Y-69716243D01*
X119850500Y-69506287D01*
X119850500Y-69293713D01*
X119817246Y-69083757D01*
X119751557Y-68881588D01*
X119655051Y-68692184D01*
X119655049Y-68692181D01*
X119655048Y-68692179D01*
X119530109Y-68520213D01*
X119416569Y-68406673D01*
X119383084Y-68345350D01*
X119388068Y-68275658D01*
X119429940Y-68219725D01*
X119460915Y-68202810D01*
X119592331Y-68153796D01*
X119707546Y-68067546D01*
X119793796Y-67952331D01*
X119844091Y-67817483D01*
X119850500Y-67757873D01*
X119850499Y-65962128D01*
X119844091Y-65902517D01*
X119793796Y-65767669D01*
X119793795Y-65767668D01*
X119793793Y-65767664D01*
X119707547Y-65652455D01*
X119707544Y-65652452D01*
X119592335Y-65566206D01*
X119592328Y-65566202D01*
X119457482Y-65515908D01*
X119457483Y-65515908D01*
X119397883Y-65509501D01*
X119397881Y-65509500D01*
X119397873Y-65509500D01*
X119397864Y-65509500D01*
X117602129Y-65509500D01*
X117602123Y-65509501D01*
X117542516Y-65515908D01*
X117407671Y-65566202D01*
X117407664Y-65566206D01*
X117292455Y-65652452D01*
X117292452Y-65652455D01*
X117206206Y-65767664D01*
X117206202Y-65767671D01*
X117155908Y-65902517D01*
X117149501Y-65962116D01*
X117149501Y-65962123D01*
X117149500Y-65962135D01*
X113700500Y-65962135D01*
X113700500Y-60618753D01*
X114595000Y-60618753D01*
X114595000Y-60831246D01*
X114628242Y-61041127D01*
X114628242Y-61041130D01*
X114693904Y-61243217D01*
X114790375Y-61432550D01*
X114829728Y-61486716D01*
X115462037Y-60854408D01*
X115479075Y-60917993D01*
X115544901Y-61032007D01*
X115637993Y-61125099D01*
X115752007Y-61190925D01*
X115815590Y-61207962D01*
X115183282Y-61840269D01*
X115183282Y-61840270D01*
X115237449Y-61879624D01*
X115426782Y-61976095D01*
X115628870Y-62041757D01*
X115838754Y-62075000D01*
X116051246Y-62075000D01*
X116261127Y-62041757D01*
X116261130Y-62041757D01*
X116463217Y-61976095D01*
X116652554Y-61879622D01*
X116706716Y-61840270D01*
X116706717Y-61840270D01*
X116074408Y-61207962D01*
X116137993Y-61190925D01*
X116252007Y-61125099D01*
X116345099Y-61032007D01*
X116410925Y-60917993D01*
X116427962Y-60854409D01*
X117060270Y-61486717D01*
X117060270Y-61486716D01*
X117099622Y-61432555D01*
X117104232Y-61423507D01*
X117152205Y-61372709D01*
X117220025Y-61355912D01*
X117286161Y-61378447D01*
X117325204Y-61423504D01*
X117329949Y-61432817D01*
X117454890Y-61604786D01*
X117605213Y-61755109D01*
X117777179Y-61880048D01*
X117777181Y-61880049D01*
X117777184Y-61880051D01*
X117966588Y-61976557D01*
X118168757Y-62042246D01*
X118378713Y-62075500D01*
X118378714Y-62075500D01*
X118591286Y-62075500D01*
X118591287Y-62075500D01*
X118801243Y-62042246D01*
X119003412Y-61976557D01*
X119192816Y-61880051D01*
X119364792Y-61755104D01*
X119478329Y-61641566D01*
X119539648Y-61608084D01*
X119609340Y-61613068D01*
X119665274Y-61654939D01*
X119682189Y-61685917D01*
X119731202Y-61817328D01*
X119731206Y-61817335D01*
X119817452Y-61932544D01*
X119817455Y-61932547D01*
X119932664Y-62018793D01*
X119932671Y-62018797D01*
X120067517Y-62069091D01*
X120067516Y-62069091D01*
X120074444Y-62069835D01*
X120127127Y-62075500D01*
X121922872Y-62075499D01*
X121982483Y-62069091D01*
X122117331Y-62018796D01*
X122232546Y-61932546D01*
X122318796Y-61817331D01*
X122369091Y-61682483D01*
X122375500Y-61622873D01*
X122375500Y-60802135D01*
X131649500Y-60802135D01*
X131649500Y-62597870D01*
X131649501Y-62597876D01*
X131655908Y-62657483D01*
X131706202Y-62792328D01*
X131706206Y-62792335D01*
X131792452Y-62907544D01*
X131792455Y-62907547D01*
X131907664Y-62993793D01*
X131907671Y-62993797D01*
X132042517Y-63044091D01*
X132042516Y-63044091D01*
X132049444Y-63044835D01*
X132102127Y-63050500D01*
X133897872Y-63050499D01*
X133957483Y-63044091D01*
X134092331Y-62993796D01*
X134207546Y-62907546D01*
X134293796Y-62792331D01*
X134344091Y-62657483D01*
X134350500Y-62597873D01*
X134350499Y-60802128D01*
X134344091Y-60742517D01*
X134337557Y-60724999D01*
X134293797Y-60607671D01*
X134293793Y-60607665D01*
X134285971Y-60597215D01*
X134234898Y-60528992D01*
X134207546Y-60492454D01*
X134207544Y-60492453D01*
X134207544Y-60492452D01*
X134092335Y-60406206D01*
X134092328Y-60406202D01*
X133957482Y-60355908D01*
X133957483Y-60355908D01*
X133897883Y-60349501D01*
X133897881Y-60349500D01*
X133897873Y-60349500D01*
X133897864Y-60349500D01*
X132102129Y-60349500D01*
X132102123Y-60349501D01*
X132042516Y-60355908D01*
X131907671Y-60406202D01*
X131907664Y-60406206D01*
X131792455Y-60492452D01*
X131792452Y-60492455D01*
X131706206Y-60607664D01*
X131706202Y-60607671D01*
X131655908Y-60742517D01*
X131650715Y-60790826D01*
X131649501Y-60802123D01*
X131649500Y-60802135D01*
X122375500Y-60802135D01*
X122375499Y-59827128D01*
X122369091Y-59767517D01*
X122367810Y-59764083D01*
X122318797Y-59632671D01*
X122318793Y-59632664D01*
X122232547Y-59517455D01*
X122232544Y-59517452D01*
X122117335Y-59431206D01*
X122117328Y-59431202D01*
X121982482Y-59380908D01*
X121982483Y-59380908D01*
X121922883Y-59374501D01*
X121922881Y-59374500D01*
X121922873Y-59374500D01*
X121922864Y-59374500D01*
X120127129Y-59374500D01*
X120127123Y-59374501D01*
X120067516Y-59380908D01*
X119932671Y-59431202D01*
X119932664Y-59431206D01*
X119817455Y-59517452D01*
X119817452Y-59517455D01*
X119731206Y-59632664D01*
X119731203Y-59632669D01*
X119682189Y-59764083D01*
X119640317Y-59820016D01*
X119574853Y-59844433D01*
X119506580Y-59829581D01*
X119478326Y-59808430D01*
X119364786Y-59694890D01*
X119192820Y-59569951D01*
X119003414Y-59473444D01*
X119003413Y-59473443D01*
X119003412Y-59473443D01*
X118801243Y-59407754D01*
X118801241Y-59407753D01*
X118801240Y-59407753D01*
X118639957Y-59382208D01*
X118591287Y-59374500D01*
X118378713Y-59374500D01*
X118330042Y-59382208D01*
X118168760Y-59407753D01*
X117966585Y-59473444D01*
X117777179Y-59569951D01*
X117605213Y-59694890D01*
X117454890Y-59845213D01*
X117329949Y-60017182D01*
X117325202Y-60026499D01*
X117277227Y-60077293D01*
X117209405Y-60094087D01*
X117143271Y-60071548D01*
X117104234Y-60026495D01*
X117099626Y-60017452D01*
X117060270Y-59963282D01*
X117060269Y-59963282D01*
X116427962Y-60595590D01*
X116410925Y-60532007D01*
X116345099Y-60417993D01*
X116252007Y-60324901D01*
X116137993Y-60259075D01*
X116074409Y-60242037D01*
X116706716Y-59609728D01*
X116652550Y-59570375D01*
X116463217Y-59473904D01*
X116261129Y-59408242D01*
X116051246Y-59375000D01*
X115838754Y-59375000D01*
X115628872Y-59408242D01*
X115628869Y-59408242D01*
X115426782Y-59473904D01*
X115237439Y-59570380D01*
X115183282Y-59609727D01*
X115183282Y-59609728D01*
X115815591Y-60242037D01*
X115752007Y-60259075D01*
X115637993Y-60324901D01*
X115544901Y-60417993D01*
X115479075Y-60532007D01*
X115462037Y-60595591D01*
X114829728Y-59963282D01*
X114829727Y-59963282D01*
X114790380Y-60017439D01*
X114693904Y-60206782D01*
X114628242Y-60408869D01*
X114628242Y-60408872D01*
X114595000Y-60618753D01*
X113700500Y-60618753D01*
X113700500Y-58424500D01*
X113720185Y-58357461D01*
X113772989Y-58311706D01*
X113824500Y-58300500D01*
X147717824Y-58300500D01*
X147784863Y-58320185D01*
G37*
%TD.AperFunction*%
%TD*%
M02*
