%TF.GenerationSoftware,KiCad,Pcbnew,9.0.3-9.0.3-0~ubuntu24.04.1*%
%TF.CreationDate,2026-01-26T20:29:58+01:00*%
%TF.ProjectId,IRsensormodule,49527365-6e73-46f7-926d-6f64756c652e,rev?*%
%TF.SameCoordinates,Original*%
%TF.FileFunction,Soldermask,Bot*%
%TF.FilePolarity,Negative*%
%FSLAX46Y46*%
G04 Gerber Fmt 4.6, Leading zero omitted, Abs format (unit mm)*
G04 Created by KiCad (PCBNEW 9.0.3-9.0.3-0~ubuntu24.04.1) date 2026-01-26 20:29:58*
%MOMM*%
%LPD*%
G01*
G04 APERTURE LIST*
%ADD10R,1.700000X1.700000*%
%ADD11C,1.700000*%
%ADD12R,1.500000X1.050000*%
%ADD13O,1.500000X1.050000*%
G04 APERTURE END LIST*
D10*
%TO.C,J10*%
X153380000Y-71600000D03*
D11*
X150840000Y-71600000D03*
X148300000Y-71600000D03*
X145760000Y-71600000D03*
%TD*%
D10*
%TO.C,J12*%
X133000000Y-61700000D03*
%TD*%
D12*
%TO.C,Q1*%
X148940000Y-59360000D03*
D13*
X148940000Y-60630000D03*
X148940000Y-61900000D03*
%TD*%
D10*
%TO.C,J9*%
X142200000Y-66820000D03*
D11*
X142200000Y-69360000D03*
X142200000Y-71900000D03*
X142200000Y-74440000D03*
%TD*%
D10*
%TO.C,J14*%
X150840000Y-68000000D03*
D11*
X148300000Y-68000000D03*
X145760000Y-68000000D03*
%TD*%
D10*
%TO.C,J6*%
X135000000Y-66820000D03*
D11*
X135000000Y-69360000D03*
X135000000Y-71900000D03*
X135000000Y-74440000D03*
%TD*%
D10*
%TO.C,J7*%
X122900000Y-76000000D03*
D11*
X120360000Y-76000000D03*
X117820000Y-76000000D03*
X115280000Y-76000000D03*
%TD*%
D10*
%TO.C,J2*%
X118500000Y-66860000D03*
D11*
X118500000Y-69400000D03*
X118500000Y-71940000D03*
%TD*%
D10*
%TO.C,J13*%
X160400000Y-75900000D03*
%TD*%
%TO.C,J1*%
X160400000Y-66860000D03*
D11*
X160400000Y-69400000D03*
X160400000Y-71940000D03*
%TD*%
D10*
%TO.C,J3*%
X121025000Y-60725000D03*
D11*
X118485000Y-60725000D03*
X115945000Y-60725000D03*
%TD*%
D10*
%TO.C,J8*%
X138600000Y-66820000D03*
D11*
X138600000Y-69360000D03*
X138600000Y-71900000D03*
X138600000Y-74440000D03*
%TD*%
D10*
%TO.C,J11*%
X153380000Y-75200000D03*
D11*
X150840000Y-75200000D03*
X148300000Y-75200000D03*
X145760000Y-75200000D03*
%TD*%
M02*
